<svg xmlns="http://www.w3.org/2000/svg" xmlns:xlink="http://www.w3.org/1999/xlink" width="458" height="425" viewBox="0 0 458 425">
  <defs>
    <clipPath id="clip-path">
      <rect id="Rectangle_173" data-name="Rectangle 173" width="458" height="425" transform="translate(243 1010)" fill="#ffe2cc"/>
    </clipPath>
    <clipPath id="clip-path-2">
      <rect id="Rectangle_217" data-name="Rectangle 217" width="894" height="592" transform="translate(0.009 0.197)" fill="none"/>
    </clipPath>
    <clipPath id="clip-path-3">
      <circle id="Ellipse_9" data-name="Ellipse 9" cx="365.451" cy="365.451" r="365.451" fill="none" stroke="#323254" stroke-miterlimit="10" stroke-width="1.434"/>
    </clipPath>
  </defs>
  <g id="img" transform="translate(-243 -1010)">
    <rect id="Rectangle_218" data-name="Rectangle 218" width="458" height="425" transform="translate(243 1010)" fill="#ffe2cc"/>
    <g id="Mask_Group_1" data-name="Mask Group 1" clip-path="url(#clip-path)" style="isolation: isolate">
      <g id="Group_897" data-name="Group 897" transform="translate(26.07 856.259)">
        <g id="Group_896" data-name="Group 896" transform="translate(-1.078 0.544)" clip-path="url(#clip-path-2)">
          <path id="Path_262" data-name="Path 262" d="M458.89,255.3A26.8,26.8,0,0,1,494.2,231.627a36.052,36.052,0,0,1,55.185,4.95A22.34,22.34,0,0,1,580.577,255.3c.044.292,0,1.789,0,1.789a6.046,6.046,0,0,1-5.95,5.142H464.842a6.046,6.046,0,0,1-5.951-5.142S458.846,255.591,458.89,255.3Z" transform="translate(87.367 40.519)" fill="#fbfaf6" opacity="0.4"/>
          <path id="Path_263" data-name="Path 263" d="M345.748,318.144a26.8,26.8,0,0,0-35.31-23.672,36.05,36.05,0,0,0-55.184,4.95,22.341,22.341,0,0,0-31.192,18.721c-.044.292,0,1.789,0,1.789a6.047,6.047,0,0,0,5.951,5.142H339.8a6.046,6.046,0,0,0,5.95-5.142S345.792,318.436,345.748,318.144Z" transform="translate(43.377 52.291)" fill="#fbfaf6" opacity="0.4"/>
          <path id="Path_264" data-name="Path 264" d="M345.089,186.666a26.8,26.8,0,0,0-35.31-23.672,36.05,36.05,0,0,0-55.184,4.949A22.343,22.343,0,0,0,223.4,186.665c-.045.292,0,1.789,0,1.789a6.048,6.048,0,0,0,5.951,5.142H339.138a6.046,6.046,0,0,0,5.95-5.142S345.133,186.958,345.089,186.666Z" transform="translate(43.254 27.662)" fill="#fbfaf6" opacity="0.4"/>
          <g id="Group_878" data-name="Group 878" transform="translate(574.394 373.808)">
            <path id="Path_265" data-name="Path 265" d="M585.621,344.591a22.683,22.683,0,0,0-29.893-20.04,30.52,30.52,0,0,0-46.72,4.19,18.915,18.915,0,0,0-26.406,15.85c-.038.247,0,1.515,0,1.515a5.12,5.12,0,0,0,5.038,4.353h92.943a5.119,5.119,0,0,0,5.038-4.353S585.658,344.84,585.621,344.591Z" transform="translate(-482.585 -315.578)" fill="#fbfaf6"/>
            <path id="Path_266" data-name="Path 266" d="M585.621,344.722c-.782-7.618-10.618-13.646-22.67-13.646a34.338,34.338,0,0,0-7.224.766c-5.527-3.562-13.171-5.767-21.616-5.767-10.407,0-19.593,3.349-25.1,8.46a28.086,28.086,0,0,0-7.547-1.01c-9.946,0-18.086,4.932-18.859,11.2a8.192,8.192,0,0,0,0,.974c.374,1.576,2.485,2.8,5.038,2.8h92.943c2.553,0,4.665-1.222,5.038-2.8A8.429,8.429,0,0,0,585.621,344.722Z" transform="translate(-482.585 -313.612)" fill="#eeebef"/>
            <path id="Path_267" data-name="Path 267" d="M585.621,344.591a22.683,22.683,0,0,0-29.893-20.04,30.52,30.52,0,0,0-46.72,4.19,18.915,18.915,0,0,0-26.406,15.85c-.038.247,0,1.515,0,1.515a5.12,5.12,0,0,0,5.038,4.353h92.943a5.119,5.119,0,0,0,5.038-4.353S585.658,344.84,585.621,344.591Z" transform="translate(-482.585 -315.578)" fill="none" stroke="#323254" stroke-miterlimit="10" stroke-width="1.138"/>
          </g>
          <g id="Group_881" data-name="Group 881" transform="translate(81.204 356.765)">
            <g id="Group_880" data-name="Group 880" clip-path="url(#clip-path-3)">
              <circle id="Ellipse_7" data-name="Ellipse 7" cx="365.451" cy="365.451" r="365.451" fill="#0a8aae"/>
              <g id="Group_879" data-name="Group 879" transform="translate(-162.837 -43.465)">
                <path id="Path_268" data-name="Path 268" d="M403.146,498.929l.554,12.878-2.442,6.328,2.442,7.437,11.933,4.672,15.91-5.531,4.621-10.146,7.678-6.142,4.154-9.5,19.447-3.523,12.525,12.34,10.881,6.822,2.331,7.053,3.108-1.266,3.157-6.737-2.935-4.226-15.184-13.987,1.64-4.47,7.439,4L503.8,505.1l2.151,7.485,5.874,7.139,2.341,5.516,4.412-.39,1.694-3.941-1.694-7.215,2.693-3.1,6.218-1.2,5.931.247L535.529,507l1.514-10.064,6.428-10.067,8.216-.93,1.444,1.222-.929,1.927,3.037,4.178,5.329-1.776-.83-4.746,3.878-2.078,5.9-1.837,3.33,1.017-1.2,3.142-3.635,4.279,1.419,2.426L582,501.269l-.668,5.875-13.661,1.566-11.1-4.9-8.659,2.724-9.948,2.774-7.7,4.272.13,3.365.2,5.628,8.9,7.107,13.084-.891,10.1-.987-.823,10.076-6.06,12.781H539.711L517.2,544.816l-8.514-.205-2.964,4.5-1.332,4.663-15.764-8.215-13.878-3.664-2.22-3.441,3.885-6.341-3.219-5.316-4.608-1.222-11.268.778-14.649,1.944-6.4,3.009-7.269,3.542-8.1-1.2-4.885-1.08-1.739.822-2.48,5.21-11.212,8.844-2,8.327-9.437,6.773L376.39,588.854l1.2,5.819.579,8.293-2.7,11.167,4.033,10.8,10.546,14.655,18.279,10.478,17.913-1.153,20.332-6.418,9.812,5.367,5.272,2.2h5.439l5.884,9.06-2.886,10.325,5.57,10.406,7.864,16.794,1.665,11.657-4.844,12.557-1.612,10.448,5.558,11.3,5.229,18.313,6.857,17.183,3.738,13.7,6.429,4.416,12.5-2.619,10.992-1.6,17.3-19.226,2.133-12.746,9.547-7.994-.592-9.478-.74-5.177,20.538-17.54-.444-17.652-5.194-14.3,7.97-17,20.4-17.208,11.126-13.654,3.109-12.323-2.352-3.107-13.079,3.884-8.865-.535-5.789-3.683-.112-5-18.318-23.092-12.323-29.753-5.661-11.546,10.546,6.439,15.876,24.091,12.093,27.642,8.979,5.767L624.072,608.5l18.65-14.1,2.541-13.678-12.482-7.84L618.839,577l-6.757-5.687-6.661-15.765,6.105-2.331,10.547,9.769,6.98,3.553,9.45.11,6.122,6.007,17.193-.344,11.324-1.11,6.941,8.855,5.139,8.486,6.46.643,3.442-4.441,2.331,2.11-.584,13.955,7.188,21.44,4.863,11.712,1.437,2.309,3.511.791,5.9-8.241,3.24-18.544,20.629-18.2,2.442-4.774,10.659-2.664,4.156.518,3.06,6.143,5.329,6.439-.17,8.791,2.667,2.388,6.94-5.184,3.33,16.758,1.769,17.436,8.809,14.876,6.852,6.106,3-2.664-13.831-21.678,1.952-13.626,10.769,8.341s4.982,4.947,5.661,5.3,6.995-4.759,6.995-4.759l6.147-5.217.071-13.663-10.526-13.095,7.112-9.424,10.067,1.139,9.333-3.764,11.132-2.765,12.829-12.05,4.573-10.547-.558-13.211s-4.773-10.546-4.773-11.1,5.858-6.488,5.816-7.13-5.057-2.409-5.057-2.409l-5.2-3.835.05-4.287,7.606-5.763,3.664-.333,1.827,4.107,3.472.563,5.793-1.415,2.788,3.452-3.111,4.506,2.664,1.761h4.847l1.592,3.68-2.393,6.287,1.837,3.26s6.713-4.273,7.093-4.461,4.01-2.644,4.01-2.644l-3.17-7.617-5.116-8.268,8.286-5.431.554-5.995,6.439-4.175,4.663,1.844,21.969-20.494,5.9-19.472-1.149-9.169-6.12-2.65-12.043-2.185,1.216-3.982,22.759-19.428h19.206s11.878-3.885,12.1-3.553,7.883,3.442,7.883,3.442l7.438-4.552s3.225-5.14,4.885-5.773,5.995-4.219,6.439-4.219,6.391-.205,6.883,0,4.774,3,4.774,3l6.593-3.09,3.4,3.09-6.661,8.437s-20.428,13.322-20.76,13.322-3.552,17.43-3.552,17.43l4.425,14.216s12.893-13.328,13.227-13.66,9.325-11.213,9.325-11.213-1.666-7.993-1.554-8.437,1.1-6.894,1.1-6.894l5.557-4.32,6.466-.987,16.873-2.606,20.347-10.287,9.047-2.774.518-2.823-4.958-6.5,1.665-2.886,5.107-.554,3.254-4.372,2.692-.435a26.918,26.918,0,0,0,3.391,2.015c.316-.034,5.2.089,5.2.089s6.005,6.921,6.339,6.921,7.354-.222,7.354-.222,5.172-7.158,6.254-7.439,0-6.772,0-6.772l-10.29-2.692h-5.649l-19.553-12.714-27.963-4.355-8.437,4.33-14.766-2.776-15.654.777-15.1-10.2H972.78l-12.638-8.346-7.681,2.75-13.209-5.412-6.927,1.3-3.953,3.8-7.883,3.663-13.1-2.22s-9.6,2.815-10.213,3.108-6.192-6.211-6.065-6.095-4.816-9.415-4.816-9.415h-14.21l-10.1,3.631-6.134-1.927-7.632-3.019H836.782l-14.452,1.393-3.088-.665-.334-2.626,14.211-8.09,2.768-7.694L824.681,313.2l-10.624,1.15-6.7-2.877L803.7,307.2l-9.214,2.109-4.441,4.774-6.772,3.108-5.429-.186L767.5,318.974l-5.475,2.325-14.279,3.22-3.1,4.273,1.66,4.476-1.153,2.352-18.487,1.473-1.164,6.071,2.684,1.951-.259,3.273-12.041-5.776L710,347.168l2.063,4.22,1.9,2.105s-7.033-1.132-7.024-1.449-.824-7.652-.824-7.652l-2.331.444-3.627,4.824,1.943,6.04-1.274,8.247-4-4.1-2.062-9.341,3.022-9.015-11.517-.018L676.14,351.608l-1.222,6.105.112,5,3.774,2.776-.778,2.664-18.205-5.871-11.436-4.787-2.314,2.422,3.848,2.425,3.129,4.924-4.405,1.608-3.006-1.6-7.342,2.433-4.341-.667L630.4,371.48l-1.756-.608.033-3.473-3.5.195-2.486,2.514-10.852,3.609-7.422,4.424-6.995-4.441-6.439.776-4,6.995s-8.659,4.107-9.1,4.107-12.989-1.887-12.989-1.887l11.657-3.442,2.232-7.662-18.552-9.656-12.949-.9-8.033-8.533-22.981,2.776-25.409,11L478.4,390.695l-15.2,9.649-9.326,7.217-.666,9.1,3.661,8.216,7.709,4.335,10.627-7.389s5.445,12.695,5.53,12.855,5,4.3,5,4.3l9.025-.724L498.4,424.88l4.977-5.42-5.533-9.013,3.33-8.771,9.326-7.659,3.309-6.884,9.9-1.11,2.442,5-13.767,14.544-.763,7.822,7.417,5.306,16.883-3.325,4.306,3.511-19.406,5.459.714,3.623,1.064,4.876-3.664,2.344-4.115-3.194-4.717,5.59.118,7.418-6.051,2.327-5.034-1.428-14.616,5.077-9.376-2.779-3.057-9.766-5.591-3.245s-2.624,3.133-2.736,3.467,4.479,10.24,4.479,10.24l-6.365,2.194-8.882,1.666-4,5.439-3.525,6.129-11.795,9.525-9.215.962-5.129,1.25.689,4.227,10.769,6.662-.382,12.773L412.4,497.485Z" transform="translate(153.376 -256.639)" fill="#a9eafa"/>
                <path id="Path_269" data-name="Path 269" d="M395.5,437.742l2.059-11.238,6.717-3.219s5-.778,5.162-.556,3.5,5.218,3.5,5.218l-3.552,7.105-8.67,5.287Z" transform="translate(157.129 -235.005)" fill="#a9eafa"/>
                <path id="Path_270" data-name="Path 270" d="M418.036,406.5l-10.346,6.61V422.1s4.93,5.558,5.173,5.59,4.229-.261,4.229-.261l1.61,5.162-4.257,2.692-2.9,5.745-.112,7.1s6.328,1.166,6.495,1.11,15.685-3.269,15.685-3.269l3.275-7.259-5.082-6.18-10.448-10.947s2.622-8.593,2.567-8.759S418.036,406.5,418.036,406.5Z" transform="translate(159.412 -238.038)" fill="#a9eafa"/>
                <path id="Path_271" data-name="Path 271" d="M292.537,880.077l-28.35-11.414-8.375-25.728,9.483-40.955,11.088-50.927.871-25.263-19.074-17.853L238.2,677.252l4.879-25.269,8.592-15.054-13.47-6.556-29.612-20.341L168.774,598.4l-32.492-27.364L101.606,530.6,82.033,496.558V478.5L71.5,456.515,51.778,436l-40.8-25.412-28.717,5.445-20.84,13-18.166-18.442L-64.648,397.7l2.214-8.609-7.506-10.426,7.506-4.376L-66.7,361l23.619-14.256,58.606,6.412L58.4,358.22l24.262-6.011L113.414,364.6l23.264,2.661,9.7-3.776,15.208,3.482,3.041-4.533,16.061-12.711s7.074-3.287,9.272-2.975,13.388,8.947,13.388,8.947l13.28,2.53h13.425l7.7,8.743-13.938,14.728-18.437,11.438L191.867,409.52l5.924,15.332,20.7,8.773,20.8,2.835,12.252-3.848-.98-18.867,4.729-14.578,20.946,2.689,7.86,16.513L298.56,409.7l9.267,14.573s15.564,14.656,15.726,14.833S331.6,448.6,331.6,448.6l-18.059,14.158-28.962,6.051,15.936,9.1-7.9,9.928-20.225,14.643-10.362,11.25-1.4,11.842L247.463,538l-8.3,13.628,2.128,12.865-6.436-2.579L222.064,553.7l-8.485-8.162-28.194,7.446-6.141,21.239,8.182,15.7,11.5.915,8.345-9.583,9.132-.666-2.037,14.852.018,6.089,12.659.236,3.893,3.583-.287,12.887,8.881,4.753,13.617,1.465,11.081-6.043,18.095-1.12,30.626,8.347,36.118,21.019,7.227,14.589,27.737,8.194L404.29,679.7l-11.407,38.011-9.5,20.675-25.728,11-11.016,26.355-22.5,16.974L298.865,815.4l-8.238,26.733-2.249,11.752Z" transform="translate(69.94 -249.235)" fill="#a9eafa"/>
                <path id="Path_272" data-name="Path 272" d="M217.883,309.935l29.6-20.624s38.735-17.764,39.5-16.875,16.529,3.891,16.529,3.891l12.951-10.108h29.309s29.309-1.425,30.493-1.6S399.5,273.9,399.5,273.9s-.128,11.337,0,11.239,9.728.325,9.728.325,10.263-6.111,12.237-5.967,6.682,7.782,6.682,7.782l-25.533,21.546,4.737,13.8s-8.741,11.959-7.7,14.487,4.736,9.931,4.441,11.707-11.538,16.265-11.538,16.265l-20.731,17.263-28.124,9.7-13.858,7.269-6.83,24.569L302.657,421.1l-14.314-21.792L284.454,387.2l9.624-17.024-15.067-8.07-7.6-26.114-16.82-10.343-19.836,3.082Z" transform="translate(123.857 -264.616)" fill="#a9eafa"/>
                <path id="Path_273" data-name="Path 273" d="M144.82,291.512l24.95-12.7,42.8-9.011,31.1-.908,12.86,1.187,7.162,6.438-26.665,16.842L215.4,302.025l-.339,8.31-18.642,7.431,2.64,5.159-22.662,1.92-8.452-8.935,4.107-7.476-17.207-3.944Z" transform="translate(110.17 -263.815)" fill="#a9eafa"/>
                <path id="Path_274" data-name="Path 274" d="M200.206,354.182l-30.681-2.608L164.3,338.7l6.754-7.012,15.674.138,16.029-.138,19.444,14.96,15.544,4.784,5.423,9.61,14.21,8.743,9.813,7.327-3.6,5.995-7.993,1.11s-2.186,9.5-1.717,9.769-.5,8.831-.5,8.831l-13.988-3.281-15.987-7.1-2-4.885-13.741,4.663-4.082-8.215,14.492-4.441,6-11.626L214,361.037Z" transform="translate(113.819 -252.053)" fill="#a9eafa"/>
                <path id="Path_275" data-name="Path 275" d="M59.744,332.9l-4.785,12.833,10.169,9.977,16.617-7.757,10.54,6.093,6.654,8.339s5.51,4.94,6.621,4.8,22.091.714,22.091.714l13.572-4.819-6.5-9.5,16.23-8.068,18.332-1.446,4.441-11.164H186.6l23.838-2.383,3.251-6.751L176.123,318.2,164.4,308.153l-7.1-9.279-22.572,9.279-11.4-8.22-24.383,4.786L78.873,321.487Z" transform="translate(93.337 -258.199)" fill="#a9eafa"/>
                <path id="Path_276" data-name="Path 276" d="M456.657,294.556l4.826,13.322,12.481,7.208,10.341,3.9,7.583-10.813,7.1,3.507,14.509-2.323-11.465-11.5,17.386-7.493-7.105-6.342-23.542,4.69Z" transform="translate(168.585 -260.98)" fill="#a9eafa"/>
                <path id="Path_277" data-name="Path 277" d="M354.51,376.65l13.241-3.451h3.277l9.662-2.486,5.288.864,4.256,5.073-3.948,6.85-11.595,6.427-14.515-3.6Z" transform="translate(149.45 -244.741)" fill="#a9eafa"/>
                <path id="Path_278" data-name="Path 278" d="M771.853,732.648l-6.825-28.194,5.255-22.2,24.174-7.773,7.087-13.1,7.319-5.077s11.616,3.279,12.539,2.274,8.239-11.946,8.239-11.946h12.213s5.121,14.485,5.781,14.494,9.983,4.664,9.983,4.664l10.657-19.157,5.773,6.534,7.535,17.581,21.593,22.164,3.29,13.988-2.279,24.868L896.967,744.2l-11.15,6.883-26.423-2.263-10.876-16.169-9.791-4.768-11.844-5.885-28.94,9.325-14.262,3.31Z" transform="translate(226.351 -193.055)" fill="#a9eafa"/>
                <path id="Path_279" data-name="Path 279" d="M709.8,595.1,727.859,623l9.77,11.3,9.392-1.108V622.434l-9.17-8.975-21.835-17.253Z" transform="translate(216.005 -202.709)" fill="#a9eafa"/>
                <path id="Path_280" data-name="Path 280" d="M741.148,632.15l10.332-2.694,18.138,2.5,19.7,2.664,6.437,4.524L788.2,641.46l-24.252-1.14Z" transform="translate(221.878 -196.272)" fill="#a9eafa"/>
                <path id="Path_281" data-name="Path 281" d="M749.85,608.178l12.249-8.431,6.671-1.11,7.138-5.849,9.459,1.055-2.807,10.666,3.591,5.7-9.364,15.448-11.59,1.976-11.028-8.015Z" transform="translate(223.508 -203.141)" fill="#a9eafa"/>
                <path id="Path_282" data-name="Path 282" d="M789.747,553.541,783.714,569.1l6.841,11.429-.808,10.257,5.753,4.321,6.878,6.883,3.271-8.648.307-7.685-7.984-7.8-1.373-7.391-2.466-8.439Z" transform="translate(229.851 -210.493)" fill="#a9eafa"/>
                <path id="Path_283" data-name="Path 283" d="M817.125,610.562l14.3,7.19L843,616.29l25.726,8.424,9.992,8.28,6.218,13.138-1.111,6.4L869.389,639.5l-14.782,3.865-12.3-1.883-4.885-15.233-14.149-3.555Z" transform="translate(236.11 -199.811)" fill="#a9eafa"/>
              </g>
              <ellipse id="Ellipse_8" data-name="Ellipse 8" cx="150.377" cy="20.871" rx="150.377" ry="20.871" transform="translate(211.703 -2.819)" fill="#0a8aae" opacity="0.5" style="mix-blend-mode: multiply;isolation: isolate"/>
              <path id="Path_284" data-name="Path 284" d="M184.36,751.425c0-212.522,172.283-384.805,384.805-384.805A384.131,384.131,0,0,1,697.7,388.641,383.4,383.4,0,0,0,437.35,287.17c-212.522,0-384.805,172.283-384.805,384.805,0,167.441,106.958,309.879,256.268,362.784A383.769,383.769,0,0,1,184.36,751.425Z" transform="translate(-69.953 -303.856)" fill="#0a8aae" opacity="0.5" style="mix-blend-mode: multiply;isolation: isolate"/>
            </g>
            <circle id="Ellipse_10" data-name="Ellipse 10" cx="365.451" cy="365.451" r="365.451" fill="none" stroke="#323254" stroke-miterlimit="10" stroke-width="1.434"/>
          </g>
          <g id="Group_892" data-name="Group 892" transform="translate(296.363 184.406)">
            <g id="Group_884" data-name="Group 884" transform="translate(18.249)">
              <path id="Path_285" data-name="Path 285" d="M335.384,239.98h0a.778.778,0,0,1-1.043-.336L293.37,159.767a.775.775,0,0,1,.335-1.041h0a.776.776,0,0,1,1.042.335l40.971,79.879A.776.776,0,0,1,335.384,239.98Z" transform="translate(-258.264 -155.575)" fill="#323254"/>
              <g id="Group_883" data-name="Group 883">
                <path id="Path_286" data-name="Path 286" d="M281.706,195.84c-.253,2.666-4.463,4.908-9.408,5.483s-8.749-1.121-8.5-3.786" transform="translate(-263.789 -148.606)" fill="#ea5c87" stroke="#323254" stroke-linecap="round" stroke-linejoin="round" stroke-width="1.138"/>
                <path id="Path_287" data-name="Path 287" d="M312.326,184.68c.714,2.427-6.16,7.753-15.452,11.283s-17.281,4.394-18,1.967" transform="translate(-260.962 -150.697)" fill="#fbfaf6" stroke="#323254" stroke-linecap="round" stroke-linejoin="round" stroke-width="1.138"/>
                <path id="Path_288" data-name="Path 288" d="M332.382,170.487c2.312,1.35,6.619-.74,9.971-4.422s4.033-7.676,1.722-9.026" transform="translate(-250.94 -155.875)" fill="#fbfaf6" stroke="#323254" stroke-linecap="round" stroke-linejoin="round" stroke-width="1.138"/>
                <path id="Path_289" data-name="Path 289" d="M307.049,187.735c1.555,2,9.7-.385,17.992-5.872s13.623-11.493,12.068-13.489" transform="translate(-255.685 -153.752)" fill="#ea5c87" stroke="#323254" stroke-linecap="round" stroke-linejoin="round" stroke-width="1.138"/>
                <g id="Group_882" data-name="Group 882" transform="translate(0.005)">
                  <path id="Path_290" data-name="Path 290" d="M302.944,164.648c-16.923,8.64-31.318,22.24-39.151,38.734,4.533.823,10.777.113,17.912-1.7C283.746,180.058,302.811,164.754,302.944,164.648Z" transform="translate(-263.793 -154.449)" fill="#fbfaf6" stroke="#323254" stroke-linecap="round" stroke-linejoin="round" stroke-width="1.138"/>
                  <path id="Path_291" data-name="Path 291" d="M350.744,157.223c-17.848-3.24-37.154.446-53.965,9.027.178-.05,23.521-6.531,42.264,4.417C344.614,165.97,348.783,161.351,350.744,157.223Z" transform="translate(-257.614 -156.058)" fill="#ea5c87" stroke="#323254" stroke-linecap="round" stroke-linejoin="round" stroke-width="1.138"/>
                  <path id="Path_292" data-name="Path 292" d="M278.879,195.841l.014-.008-.014,0Z" transform="translate(-260.967 -148.608)" fill="#fff" stroke="#323254" stroke-linecap="round" stroke-linejoin="round" stroke-width="1.138"/>
                  <path id="Path_293" data-name="Path 293" d="M332.39,168.367l-.01,0-.032.026Z" transform="translate(-250.951 -153.754)" fill="#fff" stroke="#323254" stroke-linecap="round" stroke-linejoin="round" stroke-width="1.138"/>
                  <path id="Path_294" data-name="Path 294" d="M296.78,164.642l-.008,0v0Z" transform="translate(-257.615 -154.451)" fill="#fff" stroke="#323254" stroke-linecap="round" stroke-linejoin="round" stroke-width="1.138"/>
                  <path id="Path_295" data-name="Path 295" d="M296.773,164.643l-.006.005.007,0Z" transform="translate(-257.616 -154.45)" fill="#fff" stroke="#323254" stroke-linecap="round" stroke-linejoin="round" stroke-width="1.138"/>
                  <path id="Path_296" data-name="Path 296" d="M310.732,185.327l-10.609-20.682-.006,0c-.133.106-19.2,15.41-21.239,37.032l.014,0c10.13-2.58,22.052-7.392,33.433-13.242Z" transform="translate(-260.967 -154.45)" fill="#ea5c87" stroke="#323254" stroke-linecap="round" stroke-linejoin="round" stroke-width="1.138"/>
                  <path id="Path_297" data-name="Path 297" d="M296.78,164.95l-.008,0,10.609,20.682,1.593,3.106c11.321-5.82,22.1-12.663,30.038-19.349l.032-.026C320.3,158.418,296.958,164.9,296.78,164.95Z" transform="translate(-257.615 -154.758)" fill="#fbfaf6" stroke="#323254" stroke-linecap="round" stroke-linejoin="round" stroke-width="1.138"/>
                </g>
              </g>
            </g>
            <path id="Path_298" data-name="Path 298" d="M282.507,213.368h0a1.665,1.665,0,0,1-1.66-1.661V204.8a1.665,1.665,0,0,1,1.66-1.66h0a1.665,1.665,0,0,1,1.661,1.66v6.908A1.665,1.665,0,0,1,282.507,213.368Z" transform="translate(-242.344 -147.239)" fill="#323254"/>
            <path id="Path_299" data-name="Path 299" d="M444.371,213.368h0a1.665,1.665,0,0,1-1.661-1.661V204.8a1.665,1.665,0,0,1,1.661-1.66h0a1.665,1.665,0,0,1,1.66,1.66v6.908A1.665,1.665,0,0,1,444.371,213.368Z" transform="translate(-212.023 -147.239)" fill="#323254"/>
            <g id="Group_885" data-name="Group 885" transform="translate(175.419 12.337)">
              <path id="Path_300" data-name="Path 300" d="M419.054,167.742h0v0Z" transform="translate(-391.874 -166.208)" fill="none" stroke="#323254" stroke-linecap="round" stroke-linejoin="round" stroke-width="1.138"/>
              <path id="Path_301" data-name="Path 301" d="M421.856,189.165c-3.262,7.765-9.325,13.172-15.572,14.7a19.588,19.588,0,0,0,15.162-36.123h0C424.731,173.273,425.12,181.394,421.856,189.165Z" transform="translate(-394.265 -166.207)" fill="#ea5c87" stroke="#323254" stroke-linecap="round" stroke-linejoin="round" stroke-width="1.138"/>
              <path id="Path_302" data-name="Path 302" d="M397.695,178.458A19.589,19.589,0,0,0,408.16,204.1c-3.282-5.529-3.666-13.645-.4-21.41s9.334-13.182,15.585-14.705v0A19.589,19.589,0,0,0,397.695,178.458Z" transform="translate(-396.162 -166.449)" fill="#ea5c87" stroke="#323254" stroke-linecap="round" stroke-linejoin="round" stroke-width="1.138"/>
              <path id="Path_303" data-name="Path 303" d="M422.279,189.165c3.264-7.771,2.876-15.892-.412-21.423-6.251,1.523-12.321,6.933-15.585,14.7s-2.877,15.881.4,21.41l.009,0,.011,0C412.954,202.337,419.018,196.93,422.279,189.165Z" transform="translate(-394.689 -166.207)" fill="#f8e780" stroke="#323254" stroke-linecap="round" stroke-linejoin="round" stroke-width="1.138"/>
            </g>
            <g id="Group_887" data-name="Group 887" transform="translate(141.501 42.038)">
              <rect id="Rectangle_206" data-name="Rectangle 206" width="80.307" height="24.092" rx="2.114" transform="translate(0 0)" fill="#0a8aae" stroke="#323254" stroke-miterlimit="10" stroke-width="1.138"/>
              <path id="Path_304" data-name="Path 304" d="M429.064,191.464v3.062a4.019,4.019,0,0,0,4.02,4.019h3.3" transform="translate(-356.081 -191.464)" fill="none" stroke="#323254" stroke-miterlimit="10" stroke-width="1.138"/>
              <path id="Path_305" data-name="Path 305" d="M367.6,198.787h3.061a4.02,4.02,0,0,0,4.02-4.019v-3.3" transform="translate(-367.595 -191.464)" fill="none" stroke="#323254" stroke-miterlimit="10" stroke-width="1.138"/>
              <path id="Path_306" data-name="Path 306" d="M374.919,212.872v-3.061a4.02,4.02,0,0,0-4.02-4.02h-3.3" transform="translate(-367.595 -188.78)" fill="none" stroke="#323254" stroke-miterlimit="10" stroke-width="1.138"/>
              <path id="Path_307" data-name="Path 307" d="M436.248,205.791h-3.062a4.02,4.02,0,0,0-4.02,4.02v3.3" transform="translate(-356.062 -188.78)" fill="none" stroke="#323254" stroke-miterlimit="10" stroke-width="1.138"/>
              <g id="Group_886" data-name="Group 886" transform="translate(14.328 7.575)">
                <path id="Path_308" data-name="Path 308" d="M414.357,205.25H392.82a3.022,3.022,0,0,1-3.012-3.012h0a3.021,3.021,0,0,1,3.012-3.011h21.537a3.02,3.02,0,0,1,3.011,3.011h0A3.021,3.021,0,0,1,414.357,205.25Z" transform="translate(-377.763 -197.585)" fill="none" stroke="#323254" stroke-miterlimit="10" stroke-width="1.138"/>
                <path id="Path_309" data-name="Path 309" d="M421.667,206.864h0a2.2,2.2,0,0,1-2.191-2.191v-4.563a2.2,2.2,0,0,1,2.191-2.191h0a2.2,2.2,0,0,1,2.189,2.191v4.563A2.2,2.2,0,0,1,421.667,206.864Z" transform="translate(-372.205 -197.83)" fill="#fbfaf6" stroke="#323254" stroke-miterlimit="10" stroke-width="1.138"/>
                <path id="Path_310" data-name="Path 310" d="M381.852,206.787h0a2.2,2.2,0,0,1-2.189-2.191v-4.563a2.2,2.2,0,0,1,2.189-2.189h0a2.2,2.2,0,0,1,2.191,2.189V204.6A2.2,2.2,0,0,1,381.852,206.787Z" transform="translate(-379.663 -197.844)" fill="#fbfaf6" stroke="#323254" stroke-miterlimit="10" stroke-width="1.138"/>
              </g>
            </g>
            <g id="Group_889" data-name="Group 889" transform="translate(68.764 42.038)">
              <rect id="Rectangle_207" data-name="Rectangle 207" width="80.307" height="24.092" rx="2.114" transform="translate(0 0)" fill="#eeebef" stroke="#323254" stroke-miterlimit="10" stroke-width="1.138"/>
              <path id="Path_311" data-name="Path 311" d="M367.8,191.464v3.062a4.018,4.018,0,0,0,4.019,4.019h3.3" transform="translate(-294.819 -191.464)" fill="none" stroke="#323254" stroke-miterlimit="10" stroke-width="1.138"/>
              <path id="Path_312" data-name="Path 312" d="M306.334,198.787h3.061a4.02,4.02,0,0,0,4.02-4.019v-3.3" transform="translate(-306.334 -191.464)" fill="none" stroke="#323254" stroke-miterlimit="10" stroke-width="1.138"/>
              <path id="Path_313" data-name="Path 313" d="M313.657,212.872v-3.061a4.02,4.02,0,0,0-4.02-4.02h-3.3" transform="translate(-306.334 -188.78)" fill="none" stroke="#323254" stroke-miterlimit="10" stroke-width="1.138"/>
              <path id="Path_314" data-name="Path 314" d="M374.986,205.791h-3.062a4.02,4.02,0,0,0-4.02,4.02v3.3" transform="translate(-294.8 -188.78)" fill="none" stroke="#323254" stroke-miterlimit="10" stroke-width="1.138"/>
              <g id="Group_888" data-name="Group 888" transform="translate(14.328 7.575)">
                <path id="Path_315" data-name="Path 315" d="M353.1,205.25H331.558a3.022,3.022,0,0,1-3.012-3.012h0a3.021,3.021,0,0,1,3.012-3.011H353.1a3.02,3.02,0,0,1,3.011,3.011h0A3.021,3.021,0,0,1,353.1,205.25Z" transform="translate(-316.501 -197.585)" fill="none" stroke="#323254" stroke-miterlimit="10" stroke-width="1.138"/>
                <path id="Path_316" data-name="Path 316" d="M360.4,206.864h0a2.2,2.2,0,0,1-2.191-2.191v-4.563a2.2,2.2,0,0,1,2.191-2.191h0a2.2,2.2,0,0,1,2.189,2.191v4.563A2.2,2.2,0,0,1,360.4,206.864Z" transform="translate(-310.943 -197.83)" fill="#ea5c87" stroke="#323254" stroke-miterlimit="10" stroke-width="1.138"/>
                <path id="Path_317" data-name="Path 317" d="M320.59,206.787h0A2.2,2.2,0,0,1,318.4,204.6v-4.563a2.2,2.2,0,0,1,2.189-2.189h0a2.2,2.2,0,0,1,2.191,2.189V204.6A2.2,2.2,0,0,1,320.59,206.787Z" transform="translate(-318.401 -197.844)" fill="#ea5c87" stroke="#323254" stroke-miterlimit="10" stroke-width="1.138"/>
              </g>
            </g>
            <g id="Group_891" data-name="Group 891" transform="translate(106.235 21.482)">
              <rect id="Rectangle_208" data-name="Rectangle 208" width="68.622" height="20.587" rx="1.806" transform="translate(0 0)" fill="#f8e780" stroke="#323254" stroke-miterlimit="10" stroke-width="1.138"/>
              <path id="Path_318" data-name="Path 318" d="M390.418,174.151v2.617a3.435,3.435,0,0,0,3.435,3.435h2.822" transform="translate(-328.053 -174.151)" fill="none" stroke="#323254" stroke-miterlimit="10" stroke-width="1.138"/>
              <path id="Path_319" data-name="Path 319" d="M337.893,180.409h2.616a3.435,3.435,0,0,0,3.435-3.435v-2.823" transform="translate(-337.893 -174.151)" fill="none" stroke="#323254" stroke-miterlimit="10" stroke-width="1.138"/>
              <path id="Path_320" data-name="Path 320" d="M344.15,192.445v-2.617a3.435,3.435,0,0,0-3.435-3.435h-2.822" transform="translate(-337.893 -171.858)" fill="none" stroke="#323254" stroke-miterlimit="10" stroke-width="1.138"/>
              <path id="Path_321" data-name="Path 321" d="M396.556,186.393H393.94a3.435,3.435,0,0,0-3.435,3.435v2.823" transform="translate(-328.037 -171.858)" fill="none" stroke="#323254" stroke-miterlimit="10" stroke-width="1.138"/>
              <line id="Line_29" data-name="Line 29" x2="68.622" transform="translate(0 10.294)" fill="#0a8aae" stroke="#323254" stroke-miterlimit="10" stroke-width="1.138"/>
              <g id="Group_890" data-name="Group 890" transform="translate(12.243 6.472)">
                <path id="Path_322" data-name="Path 322" d="M377.849,185.931h-18.4a2.581,2.581,0,0,1-2.574-2.573h0a2.582,2.582,0,0,1,2.574-2.574h18.4a2.582,2.582,0,0,1,2.574,2.574h0A2.581,2.581,0,0,1,377.849,185.931Z" transform="translate(-346.58 -179.381)" fill="#f8e780" stroke="#323254" stroke-miterlimit="10" stroke-width="1.138"/>
                <path id="Path_323" data-name="Path 323" d="M384.1,187.31h0a1.877,1.877,0,0,1-1.872-1.871v-3.9a1.877,1.877,0,0,1,1.872-1.871h0a1.876,1.876,0,0,1,1.871,1.871v3.9A1.876,1.876,0,0,1,384.1,187.31Z" transform="translate(-341.831 -179.59)" fill="#fbfaf6" stroke="#323254" stroke-miterlimit="10" stroke-width="1.138"/>
                <path id="Path_324" data-name="Path 324" d="M350.075,187.245h0a1.877,1.877,0,0,1-1.871-1.872v-3.9a1.877,1.877,0,0,1,1.871-1.872h0a1.877,1.877,0,0,1,1.871,1.872v3.9A1.877,1.877,0,0,1,350.075,187.245Z" transform="translate(-348.204 -179.602)" fill="#fbfaf6" stroke="#323254" stroke-miterlimit="10" stroke-width="1.138"/>
              </g>
            </g>
            <circle id="Ellipse_11" data-name="Ellipse 11" cx="23.248" cy="23.248" r="23.248" transform="translate(53.895 152.323)" fill="#323254" stroke="#323254" stroke-miterlimit="10" stroke-width="0.427"/>
            <circle id="Ellipse_12" data-name="Ellipse 12" cx="9.4" cy="9.4" r="9.4" transform="translate(63.849 175.57) rotate(-45)" fill="#eeebef"/>
            <path id="Path_325" data-name="Path 325" d="M506.222,222.421H259.844s-14.6,55.594-2.7,100.154h37.313l5.394-10.527h50.136l5.4,10.527H538.844S542.105,262.1,506.222,222.421Z" transform="translate(-247.659 -143.627)" fill="#fbfaf6" stroke="#323254" stroke-miterlimit="10" stroke-width="1.138"/>
            <path id="Path_326" data-name="Path 326" d="M513.4,224.419H254.577a12.7,12.7,0,0,1,12.665-12.665H500.737A12.7,12.7,0,0,1,513.4,224.419Z" transform="translate(-247.265 -145.625)" fill="#fff" stroke="#323254" stroke-miterlimit="10" stroke-width="1.138"/>
            <path id="Path_327" data-name="Path 327" d="M286.822,315.542H260.057a8.13,8.13,0,0,1-8.106-8.106h0a8.13,8.13,0,0,1,8.106-8.1h26.765a8.129,8.129,0,0,1,8.106,8.1h0A8.129,8.129,0,0,1,286.822,315.542Z" transform="translate(-247.757 -129.22)" fill="#fff" stroke="#323254" stroke-miterlimit="10" stroke-width="1.138"/>
            <path id="Path_328" data-name="Path 328" d="M499.773,315.542H476.067a8.129,8.129,0,0,1-8.106-8.106h0a8.129,8.129,0,0,1,8.106-8.1h23.706a8.129,8.129,0,0,1,8.106,8.1h0A8.13,8.13,0,0,1,499.773,315.542Z" transform="translate(-207.293 -129.22)" fill="#fff" stroke="#323254" stroke-miterlimit="10" stroke-width="1.138"/>
            <circle id="Ellipse_13" data-name="Ellipse 13" cx="23.248" cy="23.248" r="23.248" transform="translate(213.462 152.323)" fill="#323254" stroke="#323254" stroke-miterlimit="10" stroke-width="0.427"/>
            <rect id="Rectangle_209" data-name="Rectangle 209" width="211.174" height="2.709" rx="0.943" transform="translate(31.137 56.849)" fill="#323254"/>
            <rect id="Rectangle_210" data-name="Rectangle 210" width="107.075" height="6.755" rx="2.837" transform="translate(106.387 175.57)" fill="#fff" stroke="#323254" stroke-miterlimit="10" stroke-width="1.138"/>
            <rect id="Rectangle_211" data-name="Rectangle 211" width="36.813" height="32.085" rx="5.547" transform="translate(60.455 82.637)" fill="#323254" stroke="#323254" stroke-miterlimit="10" stroke-width="0.881"/>
            <rect id="Rectangle_212" data-name="Rectangle 212" width="28.505" height="24.844" rx="4.295" transform="translate(68.764 89.878)" fill="#0a8aae" stroke="#323254" stroke-miterlimit="10" stroke-width="0.881"/>
            <rect id="Rectangle_213" data-name="Rectangle 213" width="36.813" height="32.085" rx="5.547" transform="translate(104.361 82.637)" fill="#323254" stroke="#323254" stroke-miterlimit="10" stroke-width="0.881"/>
            <rect id="Rectangle_214" data-name="Rectangle 214" width="28.505" height="24.844" rx="4.295" transform="translate(112.669 89.878)" fill="#0a8aae" stroke="#323254" stroke-miterlimit="10" stroke-width="0.881"/>
            <rect id="Rectangle_215" data-name="Rectangle 215" width="36.813" height="32.085" rx="5.547" transform="translate(148.266 82.637)" fill="#323254" stroke="#323254" stroke-miterlimit="10" stroke-width="0.881"/>
            <rect id="Rectangle_216" data-name="Rectangle 216" width="28.505" height="24.844" rx="4.295" transform="translate(156.575 89.878)" fill="#0a8aae" stroke="#323254" stroke-miterlimit="10" stroke-width="0.881"/>
            <path id="Path_329" data-name="Path 329" d="M476.566,257.743H418.378a8.129,8.129,0,0,1-8.106-8.106V233.764a8.129,8.129,0,0,1,8.106-8.106h50.028a2.2,2.2,0,0,1,2.111,1.578l8.159,27.685A2.2,2.2,0,0,1,476.566,257.743Z" transform="translate(-218.1 -143.021)" fill="#323254" stroke="#323254" stroke-miterlimit="10" stroke-width="0.881"/>
            <path id="Path_330" data-name="Path 330" d="M474.624,256.6H429.568a6.3,6.3,0,0,1-6.276-6.276V238.033a6.294,6.294,0,0,1,6.276-6.276h38.738a1.7,1.7,0,0,1,1.634,1.222l6.319,21.436A1.7,1.7,0,0,1,474.624,256.6Z" transform="translate(-215.661 -141.878)" fill="#0a8aae" stroke="#323254" stroke-miterlimit="10" stroke-width="0.881"/>
            <path id="Path_331" data-name="Path 331" d="M488.183,257.743H476.071a3.317,3.317,0,0,1-3.152-2.288L464.613,230a3.316,3.316,0,0,1,3.152-4.344h2.05a128.589,128.589,0,0,1,9.077,12.968A137.445,137.445,0,0,1,488.183,257.743Z" transform="translate(-207.951 -143.021)" fill="#323254" stroke="#323254" stroke-miterlimit="10" stroke-width="0.881"/>
            <path id="Path_332" data-name="Path 332" d="M487.118,256.6h-6.676a2.566,2.566,0,0,1-2.44-1.771l-7.741-19.708a2.568,2.568,0,0,1,2.441-3.364h1.587s3.517,5.14,5.995,9.476A88.317,88.317,0,0,1,487.118,256.6Z" transform="translate(-206.886 -141.878)" fill="#0a8aae" stroke="#323254" stroke-miterlimit="10" stroke-width="0.682"/>
            <circle id="Ellipse_14" data-name="Ellipse 14" cx="9.4" cy="9.4" r="9.4" transform="translate(223.416 175.57) rotate(-45)" fill="#eeebef"/>
            <path id="Path_333" data-name="Path 333" d="M532.326,284.044l-7.2-6.872A50.466,50.466,0,0,0,490.277,263.2H251.121a2.7,2.7,0,0,1-2.7-2.7h0a2.7,2.7,0,0,1,2.7-2.7H491.627a50.469,50.469,0,0,1,34.854,13.968l9.189,8.774a2.42,2.42,0,0,1,.49,2.838h0A2.42,2.42,0,0,1,532.326,284.044Z" transform="translate(-248.419 -136.999)" fill="#fff" stroke="#323254" stroke-miterlimit="10" stroke-width="1.138"/>
            <path id="Path_334" data-name="Path 334" d="M492.195,299.656h0a4.791,4.791,0,0,1-4.778-4.776V281.637a4.792,4.792,0,0,1,4.778-4.778h0a4.792,4.792,0,0,1,4.778,4.778v13.242A4.791,4.791,0,0,1,492.195,299.656Z" transform="translate(-203.649 -133.429)" fill="#667389" stroke="#323254" stroke-miterlimit="10" stroke-width="1.138"/>
            <path id="Path_335" data-name="Path 335" d="M494,299.656h0a2.565,2.565,0,0,1-2.558-2.557V279.416A2.565,2.565,0,0,1,494,276.859h0a2.565,2.565,0,0,1,2.557,2.557V297.1A2.564,2.564,0,0,1,494,299.656Z" transform="translate(-202.895 -133.429)" fill="#f8e780" stroke="#323254" stroke-miterlimit="10" stroke-width="1.138"/>
            <line id="Line_30" data-name="Line 30" y2="39.346" transform="translate(192.172 135.999)" fill="none" stroke="#323254" stroke-miterlimit="10" stroke-width="1.138"/>
            <line id="Line_31" data-name="Line 31" x2="9.794" transform="translate(198.758 138.532)" fill="none" stroke="#323254" stroke-miterlimit="10" stroke-width="1.138"/>
            <line id="Line_32" data-name="Line 32" x2="22.783" transform="translate(21.011 131.834)" fill="none" stroke="#323254" stroke-miterlimit="10" stroke-width="1.138"/>
            <line id="Line_33" data-name="Line 33" x2="22.783" transform="translate(21.011 135.774)" fill="none" stroke="#323254" stroke-miterlimit="10" stroke-width="1.138"/>
            <line id="Line_34" data-name="Line 34" x2="22.783" transform="translate(21.011 139.714)" fill="none" stroke="#323254" stroke-miterlimit="10" stroke-width="1.138"/>
            <line id="Line_35" data-name="Line 35" x2="22.783" transform="translate(21.011 143.655)" fill="none" stroke="#323254" stroke-miterlimit="10" stroke-width="1.138"/>
            <line id="Line_36" data-name="Line 36" x2="22.783" transform="translate(21.011 147.595)" fill="none" stroke="#323254" stroke-miterlimit="10" stroke-width="1.138"/>
          </g>
          <g id="Group_893" data-name="Group 893" transform="translate(225.182 241.255)">
            <path id="Path_336" data-name="Path 336" d="M188.486,234.427a23.841,23.841,0,0,1,31.414-21.06,32.072,32.072,0,0,1,49.1,4.4,19.877,19.877,0,0,1,27.75,16.656c.039.26,0,1.591,0,1.591a5.379,5.379,0,0,1-5.294,4.575H193.781a5.379,5.379,0,0,1-5.294-4.575S188.447,234.687,188.486,234.427Z" transform="translate(-188.469 -203.938)" fill="#fbfaf6"/>
            <path id="Path_337" data-name="Path 337" d="M188.486,234.565c.823-8.006,11.159-14.34,23.823-14.34a36.084,36.084,0,0,1,7.592.8c5.808-3.744,13.841-6.06,22.716-6.06,10.936,0,20.589,3.519,26.38,8.889a29.561,29.561,0,0,1,7.93-1.061c10.453,0,19.007,5.183,19.82,11.766a8.741,8.741,0,0,1,0,1.023c-.392,1.656-2.611,2.94-5.294,2.94H193.781c-2.683,0-4.9-1.283-5.294-2.94A8.723,8.723,0,0,1,188.486,234.565Z" transform="translate(-188.469 -201.872)" fill="#eeebef"/>
            <path id="Path_338" data-name="Path 338" d="M188.486,234.427a23.841,23.841,0,0,1,31.414-21.06,32.072,32.072,0,0,1,49.1,4.4,19.877,19.877,0,0,1,27.75,16.656c.039.26,0,1.591,0,1.591a5.379,5.379,0,0,1-5.294,4.575H193.781a5.379,5.379,0,0,1-5.294-4.575S188.447,234.687,188.486,234.427Z" transform="translate(-188.469 -203.938)" fill="none" stroke="#323254" stroke-miterlimit="10" stroke-width="1.138"/>
          </g>
          <g id="Group_894" data-name="Group 894" transform="translate(225.183 391.249)">
            <path id="Path_339" data-name="Path 339" d="M188.489,366.647a28.446,28.446,0,0,1,37.484-25.129,38.269,38.269,0,0,1,58.58,5.254,23.719,23.719,0,0,1,33.111,19.873c.048.311,0,1.9,0,1.9A6.418,6.418,0,0,1,311.346,374H194.807a6.418,6.418,0,0,1-6.317-5.458S188.443,366.956,188.489,366.647Z" transform="translate(-188.469 -330.267)" fill="#fbfaf6"/>
            <path id="Path_340" data-name="Path 340" d="M188.489,366.81c.981-9.552,13.313-17.111,28.425-17.111a43.047,43.047,0,0,1,9.059.961c6.929-4.467,16.515-7.231,27.1-7.231,13.049,0,24.567,4.2,31.476,10.608a35.238,35.238,0,0,1,9.463-1.268c12.472,0,22.678,6.185,23.648,14.04a10.275,10.275,0,0,1,0,1.222c-.468,1.976-3.116,3.507-6.317,3.507H194.807c-3.2,0-5.849-1.532-6.317-3.507A10.528,10.528,0,0,1,188.489,366.81Z" transform="translate(-188.469 -327.801)" fill="#eeebef"/>
            <path id="Path_341" data-name="Path 341" d="M188.489,366.647a28.446,28.446,0,0,1,37.484-25.129,38.269,38.269,0,0,1,58.58,5.254,23.719,23.719,0,0,1,33.111,19.873c.048.311,0,1.9,0,1.9A6.418,6.418,0,0,1,311.346,374H194.807a6.418,6.418,0,0,1-6.317-5.458S188.443,366.956,188.489,366.647Z" transform="translate(-188.469 -330.267)" fill="none" stroke="#323254" stroke-miterlimit="10" stroke-width="1.138"/>
          </g>
          <g id="Group_895" data-name="Group 895" transform="translate(534.927 187.561)">
            <path id="Path_342" data-name="Path 342" d="M557.622,189.2a23.838,23.838,0,0,0-31.414-21.06,32.072,32.072,0,0,0-49.1,4.4,19.877,19.877,0,0,0-27.75,16.655c-.039.261,0,1.592,0,1.592a5.38,5.38,0,0,0,5.294,4.575h97.671a5.378,5.378,0,0,0,5.293-4.575S557.661,189.464,557.622,189.2Z" transform="translate(-449.345 -158.715)" fill="#fbfaf6"/>
            <path id="Path_343" data-name="Path 343" d="M557.622,189.34C556.8,181.335,546.464,175,533.8,175a36.088,36.088,0,0,0-7.592.805c-5.808-3.744-13.841-6.06-22.716-6.06-10.936,0-20.589,3.519-26.38,8.889a29.552,29.552,0,0,0-7.93-1.061c-10.453,0-19.007,5.183-19.82,11.766a8.728,8.728,0,0,0,0,1.023c.392,1.656,2.612,2.94,5.294,2.94h97.671c2.682,0,4.9-1.283,5.293-2.94A8.728,8.728,0,0,0,557.622,189.34Z" transform="translate(-449.345 -156.649)" fill="#eeebef"/>
            <path id="Path_344" data-name="Path 344" d="M557.622,189.2a23.838,23.838,0,0,0-31.414-21.06,32.072,32.072,0,0,0-49.1,4.4,19.877,19.877,0,0,0-27.75,16.655c-.039.261,0,1.592,0,1.592a5.38,5.38,0,0,0,5.294,4.575h97.671a5.378,5.378,0,0,0,5.293-4.575S557.661,189.464,557.622,189.2Z" transform="translate(-449.345 -158.715)" fill="none" stroke="#323254" stroke-miterlimit="10" stroke-width="1.138"/>
          </g>
          <line id="Line_37" data-name="Line 37" x2="51.29" transform="translate(241.075 364.254)" fill="none" stroke="#323254" stroke-linecap="round" stroke-linejoin="round" stroke-width="1.434"/>
          <line id="Line_38" data-name="Line 38" x2="13.521" transform="translate(270.768 351.028)" fill="none" stroke="#323254" stroke-linecap="round" stroke-linejoin="round" stroke-width="1.434"/>
          <line id="Line_39" data-name="Line 39" x2="34.028" transform="translate(252.142 339.691)" fill="none" stroke="#323254" stroke-linecap="round" stroke-linejoin="round" stroke-width="1.434"/>
          <line id="Line_40" data-name="Line 40" x2="10.527" transform="translate(249.173 329.163)" fill="none" stroke="#323254" stroke-linecap="round" stroke-linejoin="round" stroke-width="1.434"/>
          <line id="Line_41" data-name="Line 41" x2="58.043" transform="translate(612.229 332.402)" fill="none" stroke="#323254" stroke-linecap="round" stroke-linejoin="round" stroke-width="1.434"/>
          <line id="Line_42" data-name="Line 42" x2="18.82" transform="translate(607.101 318.906)" fill="none" stroke="#323254" stroke-linecap="round" stroke-linejoin="round" stroke-width="1.434"/>
          <line id="Line_43" data-name="Line 43" x2="24.098" transform="translate(636.793 348.059)" fill="none" stroke="#323254" stroke-linecap="round" stroke-linejoin="round" stroke-width="1.434"/>
          <line id="Line_44" data-name="Line 44" x2="24.078" transform="translate(616.278 361.015)" fill="none" stroke="#323254" stroke-linecap="round" stroke-linejoin="round" stroke-width="1.434"/>
          <line id="Line_45" data-name="Line 45" x2="8.372" transform="translate(659.737 364.254)" fill="none" stroke="#323254" stroke-linecap="round" stroke-linejoin="round" stroke-width="1.434"/>
        </g>
      </g>
    </g>
  </g>
</svg>
