<svg id="chat-comment-oval-speech-bubble-with-text-lines" xmlns="http://www.w3.org/2000/svg" width="23" height="23" viewBox="0 0 23 23">
  <g id="_x32__26_">
    <g id="Group_836" data-name="Group 836">
      <path id="Path_253" data-name="Path 253" d="M15.094,12.219H7.906a.719.719,0,0,0,0,1.438h7.187a.719.719,0,1,0,0-1.438Zm1.438-4.312H6.469a.719.719,0,1,0,0,1.437H16.531a.719.719,0,1,0,0-1.437ZM11.5,0C5.149,0,0,4.505,0,10.063a9.632,9.632,0,0,0,4.313,7.848V23L9.35,19.943a13.188,13.188,0,0,0,2.15.182c6.352,0,11.5-4.505,11.5-10.062S17.852,0,11.5,0Zm0,18.688a11.631,11.631,0,0,1-2.429-.264L5.687,20.458l.045-3.334a8.334,8.334,0,0,1-4.294-7.062C1.438,5.3,5.943,1.438,11.5,1.438S21.563,5.3,21.563,10.063,17.057,18.688,11.5,18.688Z" fill="#4e4e4e"/>
    </g>
  </g>
</svg>
