<svg id="interface_1_" data-name="interface (1)" xmlns="http://www.w3.org/2000/svg" width="22.534" height="22.534" viewBox="0 0 22.534 22.534">
  <path id="Path_254" data-name="Path 254" d="M19.952,63.324H2.582A2.584,2.584,0,0,1,0,60.742V45.25a2.584,2.584,0,0,1,2.582-2.582h17.37a2.584,2.584,0,0,1,2.582,2.582V60.742A2.584,2.584,0,0,1,19.952,63.324ZM2.582,44.076A1.175,1.175,0,0,0,1.408,45.25V60.742a1.175,1.175,0,0,0,1.174,1.174h17.37a1.175,1.175,0,0,0,1.174-1.174V45.25a1.175,1.175,0,0,0-1.174-1.174Zm0,0" transform="translate(0 -40.79)" fill="#fff"/>
  <path id="Path_255" data-name="Path 255" d="M21.83,172.076H.7a.7.7,0,1,1,0-1.408H21.83a.7.7,0,0,1,0,1.408Zm0,0" transform="translate(0 -163.157)" fill="#fff"/>
  <path id="Path_256" data-name="Path 256" d="M107.372,5.633a.7.7,0,0,1-.7-.7V.7a.7.7,0,1,1,1.408,0V4.929A.7.7,0,0,1,107.372,5.633Zm0,0" transform="translate(-101.973)" fill="#fff"/>
  <path id="Path_257" data-name="Path 257" d="M374.036,5.633a.7.7,0,0,1-.7-.7V.7a.7.7,0,0,1,1.408,0V4.929A.7.7,0,0,1,374.036,5.633Zm0,0" transform="translate(-356.901)" fill="#fff"/>
</svg>
