<svg xmlns="http://www.w3.org/2000/svg" width="23.016" height="20.643" viewBox="0 0 23.016 20.643">
  <path id="love-and-romance" d="M19.81,1.873A5.786,5.786,0,0,0,15.506,0a5.413,5.413,0,0,0-3.381,1.167,6.917,6.917,0,0,0-1.367,1.427A6.913,6.913,0,0,0,9.392,1.167,5.412,5.412,0,0,0,6.011,0a5.786,5.786,0,0,0-4.3,1.873A6.726,6.726,0,0,0,0,6.466a8.008,8.008,0,0,0,2.134,5.242,45.506,45.506,0,0,0,5.342,5.014c.74.631,1.579,1.346,2.45,2.108a1.263,1.263,0,0,0,1.663,0c.871-.762,1.711-1.477,2.451-2.108a45.48,45.48,0,0,0,5.342-5.014,8.008,8.008,0,0,0,2.134-5.242A6.725,6.725,0,0,0,19.81,1.873Zm0,0" transform="translate(0.75 0.75)" fill="none" stroke="#4e4e4e" stroke-width="1.5"/>
</svg>
