<svg xmlns="http://www.w3.org/2000/svg" width="60.25" height="60.196" viewBox="0 0 60.25 60.196">
  <g id="location" transform="translate(0.048 -0.22)">
    <path id="Path_258" data-name="Path 258" d="M60.1,28.058a.967.967,0,0,0,.059-.294,1.006,1.006,0,0,0-.05-.312l-.078-.219A30.066,30.066,0,0,0,49.085,6.992c-.442-.36-.9-.686-1.367-1.019-.023-.019-.035-.046-.06-.064s-.045-.016-.066-.029A30.215,30.215,0,0,0,30.044.221c-.259,0-.52,0-.714.02a29.456,29.456,0,0,0-9.823,1.89A9.036,9.036,0,0,0,4.914,9.268,9.548,9.548,0,0,0,5.7,12.6,30.221,30.221,0,0,0,3,17.048c-.015.024-.024.05-.037.075A30.157,30.157,0,0,0,56.593,44.689a29.688,29.688,0,0,0,3.566-12.837c.031-.485.042-.979.042-1.474,0-.779-.04-1.551-.1-2.32ZM57.18,22.9c-.128-.113-.245-.244-.379-.349a13.248,13.248,0,0,0-4.389-2.192A9.448,9.448,0,0,0,48,20.312a8.69,8.69,0,0,1-3.755.019c-2.4-.525-4.3-.938-5.309-2.547-1.443-2.312-.766-5.562.756-6.706a2.294,2.294,0,0,1,1.72-.367,6.426,6.426,0,0,0,3.116-.525,8.077,8.077,0,0,0,2.714-2.067c.19.147.391.279.577.43A28.108,28.108,0,0,1,57.18,22.9ZM13.961,2.232A7.048,7.048,0,0,1,21,9.268c0,3.007-4.516,9.891-7.037,13.381a63.175,63.175,0,0,1-6.2-10.3,8.379,8.379,0,0,1-.835-3.076,7.045,7.045,0,0,1,7.037-7.037ZM1.9,30.378A28.463,28.463,0,0,1,2.462,24.8c.107,1.4.29,2.641.453,3.719.623,4.122,1.211,8.007,4.249,11.56,1.27,1.5,3.4,4,6.687,4.37s7.408-1.522,8.6-2.111l.456-.23a4.421,4.421,0,0,1,2.1-.672,4.958,4.958,0,0,1,3.289,1.68c1.715,1.9,2.151,5.07.932,6.785a3.087,3.087,0,0,1-1.544,1.073,4.7,4.7,0,0,0-2.521,2.01,6.208,6.208,0,0,0-.434,5.026A28.19,28.19,0,0,1,1.9,30.378ZM30.044,58.525a28.352,28.352,0,0,1-2.908-.15,3.559,3.559,0,0,1-.229-.33,4.277,4.277,0,0,1-.019-4.033,2.773,2.773,0,0,1,1.579-1.187,5.009,5.009,0,0,0,2.4-1.76c1.748-2.459,1.254-6.718-1.075-9.295a6.9,6.9,0,0,0-4.762-2.345h-.045a6.092,6.092,0,0,0-2.995.892l-.429.217c-2.2,1.083-5.322,2.153-7.485,1.91-2.5-.279-4.23-2.322-5.38-3.675C6.027,35.653,5.505,32.2,4.9,28.214a28.9,28.9,0,0,1-.077-10.339,28.194,28.194,0,0,1,1.822-3.157c.033.067.07.135.1.2.064.128.131.254.2.382l.3.571q.1.193.211.387.16.286.322.573c.073.127.145.254.218.38q.168.286.337.571c.074.125.148.248.223.372.119.2.239.389.358.583.068.11.135.221.2.33.149.239.3.47.444.7.039.06.079.124.117.183q.276.428.546.835c.068.1.134.2.2.3.11.166.221.332.328.49l.239.349c.086.128.174.255.258.377l.241.347c.075.108.149.214.22.315s.152.216.226.32l.184.259.2.277.164.227.16.22.131.177.123.167.073.1c.09.122.158.213.177.238a1,1,0,0,0,1.608,0c.844-1.119,8.245-11.041,8.245-15.688,0-.294-.018-.585-.046-.875-.009-.089-.023-.179-.034-.268-.026-.2-.057-.4-.1-.6-.019-.1-.04-.195-.062-.292q-.07-.3-.162-.6c-.025-.08-.046-.162-.073-.241-.09-.269-.192-.536-.307-.8-.022-.05-.049-.1-.072-.146-.1-.209-.2-.416-.317-.618-.05-.09-.106-.178-.16-.267q-.145-.238-.3-.468c-.062-.089-.126-.179-.191-.267-.034-.044-.063-.091-.1-.134a27.452,27.452,0,0,1,6.46-1.339c-1.567,2.958-2.079,5.695-1.494,8.143a10.481,10.481,0,0,0,2.413,4.4c.946,1.171,1.626,2.015,1.584,3.394-.086,2.915-3.378,5.342-4.624,6.259a17.31,17.31,0,0,1-5.4,2.607c-1.826.6-3.4,1.111-4,2.908a5.731,5.731,0,0,0,2.434,6.2,5.078,5.078,0,0,0,4.006.354A12.365,12.365,0,0,1,26.9,36.4c1.91.27,3.557.5,4.338,1.6.463.653.439,1.329.349,2.568a12.179,12.179,0,0,0,.521,5.21c.458,1.375,1.151,3.452,2.815,3.692a2.081,2.081,0,0,0,.326.026c1.178,0,1.9-1.04,2.656-2.133.335-.483.7-1.005,1.146-1.529,2.069,3.343,4.171,6.132,4.268,6.265a1.005,1.005,0,0,0,1.608,0,83.569,83.569,0,0,0,5.95-9.161,13.209,13.209,0,0,1,3.491,1.591,28.1,28.1,0,0,1-24.32,14ZM48.807,31.169a7.019,7.019,0,0,1,2.347,5.24c0,.723-.294,2.156-1.687,4.878a74.926,74.926,0,0,1-5.349,8.5c-.946-1.318-2.573-3.657-4.03-6.116a37.169,37.169,0,0,1-2.171-4.185,8.379,8.379,0,0,1-.835-3.076,7.045,7.045,0,0,1,7.037-7.037q.326,0,.647.029a6.974,6.974,0,0,1,4.042,1.767Zm9.348.579a27.693,27.693,0,0,1-2.831,11,15.289,15.289,0,0,0-3.53-1.645,11.909,11.909,0,0,0,1.37-4.7A9.085,9.085,0,0,0,48.1,28.285l-.063-.028c-.225-.108-.453-.21-.686-.3-.16-.062-.326-.111-.49-.163-.1-.03-.191-.068-.289-.1-.259-.074-.523-.134-.788-.183h-.013c-.161-.03-.323-.046-.486-.067A8.984,8.984,0,0,0,35.071,36.41a10.349,10.349,0,0,0,1,3.863,37.088,37.088,0,0,0,1.9,3.744,18.53,18.53,0,0,0-1.721,2.2,5.233,5.233,0,0,1-1.034,1.266c-.2-.03-.574-.459-1.206-2.34a10.313,10.313,0,0,1-.423-4.429,5.377,5.377,0,0,0-.718-3.88c-1.284-1.795-3.524-2.111-5.7-2.42a14.163,14.163,0,0,0-5.085.228c-1.286.246-1.883.338-2.566-.088A3.81,3.81,0,0,1,17.924,30.7c.268-.8,1.073-1.095,2.714-1.634a19.3,19.3,0,0,0,5.972-2.9c1.465-1.074,5.328-3.926,5.444-7.816.064-2.128-1-3.441-2.03-4.711a8.694,8.694,0,0,1-2.018-3.594c-.534-2.24.128-4.866,1.922-7.81h.115A28.214,28.214,0,0,1,45.6,6.934a6.039,6.039,0,0,1-1.9,1.419,4.5,4.5,0,0,1-2.227.348,4.216,4.216,0,0,0-2.988.768c-2.279,1.716-3.3,6.092-1.252,9.378,1.458,2.329,3.949,2.872,6.669,3.465a10.525,10.525,0,0,0,4.439-.019,7.583,7.583,0,0,1,3.567.011,11.2,11.2,0,0,1,3.649,1.826,8.231,8.231,0,0,1,2.5,3.564c.082.888.134,1.778.134,2.683,0,.45-.009.9-.039,1.37Zm0,0" transform="translate(0 0)" fill="#2b2b2b"/>
    <path id="Path_259" data-name="Path 259" d="M83.459,40.272a4.021,4.021,0,1,0-4.021-4.021A4.021,4.021,0,0,0,83.459,40.272Zm0-6.031a2.01,2.01,0,1,1-2.01,2.01A2.011,2.011,0,0,1,83.459,34.241Zm0,0" transform="translate(-69.498 -27.989)" fill="#2b2b2b"/>
    <path id="Path_260" data-name="Path 260" d="M319.438,252.251a4.021,4.021,0,1,0,4.021-4.021A4.021,4.021,0,0,0,319.438,252.251Zm6.031,0a2.01,2.01,0,1,1-2.01-2.01A2.011,2.011,0,0,1,325.469,252.251Zm0,0" transform="translate(-279.341 -216.847)" fill="#2b2b2b"/>
  </g>
</svg>
