<svg xmlns="http://www.w3.org/2000/svg" width="102.896" height="58.822" viewBox="0 0 102.896 58.822">
  <g id="Group_781" data-name="Group 781" transform="translate(0.05 -63.95)">
    <path id="Path_232" data-name="Path 232" d="M131.262,105.631a1.631,1.631,0,0,0-3.262,0v3.67a1.631,1.631,0,1,0,3.262,0Z" transform="translate(-108.426 -33.883)" fill="#2b2b2b" stroke="#fff" stroke-width="0.1"/>
    <path id="Path_233" data-name="Path 233" d="M131.262,193.631a1.631,1.631,0,0,0-3.262,0v3.262a1.631,1.631,0,0,0,3.262,0Z" transform="translate(-108.426 -108.426)" fill="#2b2b2b" stroke="#fff" stroke-width="0.1"/>
    <path id="Path_234" data-name="Path 234" d="M131.262,278.964a1.631,1.631,0,0,0-3.262,0v3.262a1.631,1.631,0,0,0,3.262,0Z" transform="translate(-108.426 -180.71)" fill="#2b2b2b" stroke="#fff" stroke-width="0.1"/>
    <path id="Path_235" data-name="Path 235" d="M129.631,362.667A1.63,1.63,0,0,0,128,364.3v3.262a1.631,1.631,0,1,0,3.262,0V364.3A1.63,1.63,0,0,0,129.631,362.667Z" transform="translate(-108.426 -252.995)" fill="#2b2b2b" stroke="#fff" stroke-width="0.1"/>
    <path id="Path_236" data-name="Path 236" d="M230.154,170.667h-15.19a1.631,1.631,0,0,0,0,3.262h15.19a1.631,1.631,0,0,0,0-3.262Z" transform="translate(-180.71 -90.355)" fill="#2b2b2b" stroke="#fff" stroke-width="0.1"/>
    <path id="Path_237" data-name="Path 237" d="M230.154,245.333h-15.19a1.631,1.631,0,0,0,0,3.262h15.19a1.631,1.631,0,0,0,0-3.262Z" transform="translate(-180.71 -153.603)" fill="#2b2b2b" stroke="#fff" stroke-width="0.1"/>
    <path id="Path_238" data-name="Path 238" d="M230.154,320h-15.19a1.631,1.631,0,0,0,0,3.262h15.19a1.631,1.631,0,0,0,0-3.262Z" transform="translate(-180.71 -216.852)" fill="#2b2b2b" stroke="#fff" stroke-width="0.1"/>
    <path id="Path_239" data-name="Path 239" d="M392.692,94a23.142,23.142,0,1,0,23.142,23.142A23.168,23.168,0,0,0,392.692,94Zm0,43.225a20.084,20.084,0,1,1,20.084-20.084A20.106,20.106,0,0,1,392.692,137.225Z" transform="translate(-313.038 -25.412)" fill="#2b2b2b" stroke="#fff" stroke-width="0.1"/>
    <path id="Path_240" data-name="Path 240" d="M70.649,119.459H6.525A3.267,3.267,0,0,1,3.262,116.2V104.662a11.419,11.419,0,0,0,0-22.6V70.525a3.267,3.267,0,0,1,3.262-3.262H64.541a28.63,28.63,0,0,1,7.15-3.178A6.542,6.542,0,0,0,70.649,64H6.525A6.531,6.531,0,0,0,0,70.525V83.574a1.63,1.63,0,0,0,1.631,1.631,8.156,8.156,0,1,1,0,16.311A1.63,1.63,0,0,0,0,103.148V116.2a6.531,6.531,0,0,0,6.525,6.525H70.649a6.514,6.514,0,0,0,5.121-2.488,28.54,28.54,0,0,1-4.225-.9A3.249,3.249,0,0,1,70.649,119.459Z" transform="translate(0)" fill="#2b2b2b" stroke="#fff" stroke-width="0.1"/>
    <path id="Path_241" data-name="Path 241" d="M456.416,199.709l-6.6-6.6-2.307,2.307,6.6,6.6h0l2.307,2.307,2.307-2.307L471.141,189.6l-2.307-2.307Z" transform="translate(-379.079 -104.438)" fill="#ff8121" stroke="#fff" stroke-width="0.1"/>
  </g>
</svg>
