<svg xmlns="http://www.w3.org/2000/svg" width="59.184" height="59.158" viewBox="0 0 59.184 59.158">
  <g id="communications" transform="translate(0.276 0.25)">
    <path id="Path_242" data-name="Path 242" d="M58.632,39.68A19,19,0,0,0,44.753,21.417,22.387,22.387,0,1,0,3.1,33.767L.082,44.693l10.926-3.022a22.3,22.3,0,0,0,10.408,3.081A18.958,18.958,0,0,0,49.323,56l9.226,2.552L56,49.323a18.884,18.884,0,0,0,2.635-9.643ZM11.55,37.956,5.01,39.766l1.809-6.541-.412-.645A18.946,18.946,0,1,1,12.2,38.369ZM53.622,53.622l-4.853-1.343-.648.422a15.523,15.523,0,0,1-23.152-8.076A22.43,22.43,0,0,0,44.626,24.968,15.523,15.523,0,0,1,52.7,48.121l-.422.648Zm0,0" fill="#2b2b2b" stroke="#fff" stroke-width="0.5"/>
    <path id="Path_243" data-name="Path 243" d="M180.5,271h3.435v3.435H180.5Zm0,0" transform="translate(-159.83 -239.966)" fill="#ff8121" stroke="#fff" stroke-width="0.5"/>
    <path id="Path_244" data-name="Path 244" d="M145.806,96.871a3.4,3.4,0,0,1-1.118,2.536l-4.035,3.693v4.192h3.435v-2.679l2.919-2.671a6.871,6.871,0,1,0-11.507-5.07h3.435a3.435,3.435,0,1,1,6.871,0Zm0,0" transform="translate(-119.983 -79.694)" fill="#ff8121" stroke="#fff" stroke-width="0.5"/>
  </g>
</svg>
