<svg xmlns="http://www.w3.org/2000/svg" width="109.606" height="14.148" viewBox="0 0 109.606 14.148">
  <g id="Group_458" data-name="Group 458" transform="translate(0 0)">
    <path id="star" d="M14.325,5.842a.767.767,0,0,0-.657-.539L9.523,4.916,7.884.973a.756.756,0,0,0-1.4,0L4.841,4.916.694,5.3a.769.769,0,0,0-.657.539.8.8,0,0,0,.223.834L3.394,9.5,2.47,13.685a.8.8,0,0,0,.3.81.745.745,0,0,0,.839.038l3.575-2.2,3.575,2.2a.746.746,0,0,0,.84-.038.8.8,0,0,0,.3-.81L10.968,9.5,14.1,6.676a.8.8,0,0,0,.223-.834ZM7.25,12.293" transform="translate(0 -0.496)" fill="#ff8121"/>
    <path id="star-2" data-name="star" d="M14.325,5.842a.767.767,0,0,0-.657-.539L9.523,4.916,7.884.973a.756.756,0,0,0-1.4,0L4.841,4.916.694,5.3a.769.769,0,0,0-.657.539.8.8,0,0,0,.223.834L3.394,9.5,2.47,13.685a.8.8,0,0,0,.3.81.745.745,0,0,0,.839.038l3.575-2.2,3.575,2.2a.746.746,0,0,0,.84-.038.8.8,0,0,0,.3-.81L10.968,9.5,14.1,6.676a.8.8,0,0,0,.223-.834ZM7.25,12.293" transform="translate(23.655 -0.496)" fill="#ff8121"/>
    <path id="star-3" data-name="star" d="M14.325,5.842a.767.767,0,0,0-.657-.539L9.523,4.916,7.884.973a.756.756,0,0,0-1.4,0L4.841,4.916.694,5.3a.769.769,0,0,0-.657.539.8.8,0,0,0,.223.834L3.394,9.5,2.47,13.685a.8.8,0,0,0,.3.81.745.745,0,0,0,.839.038l3.575-2.2,3.575,2.2a.746.746,0,0,0,.84-.038.8.8,0,0,0,.3-.81L10.968,9.5,14.1,6.676a.8.8,0,0,0,.223-.834ZM7.25,12.293" transform="translate(47.311 -0.496)" fill="#ff8121"/>
    <path id="star-4" data-name="star" d="M14.325,5.842a.767.767,0,0,0-.657-.539L9.523,4.916,7.884.973a.756.756,0,0,0-1.4,0L4.841,4.916.694,5.3a.769.769,0,0,0-.657.539.8.8,0,0,0,.223.834L3.394,9.5,2.47,13.685a.8.8,0,0,0,.3.81.745.745,0,0,0,.839.038l3.575-2.2,3.575,2.2a.746.746,0,0,0,.84-.038.8.8,0,0,0,.3-.81L10.968,9.5,14.1,6.676a.8.8,0,0,0,.223-.834ZM7.25,12.293" transform="translate(71.588 -0.496)" fill="#ff8121"/>
    <path id="star-5" data-name="star" d="M14.325,5.842a.767.767,0,0,0-.657-.539L9.523,4.916,7.884.973a.756.756,0,0,0-1.4,0L4.841,4.916.694,5.3a.769.769,0,0,0-.657.539.8.8,0,0,0,.223.834L3.394,9.5,2.47,13.685a.8.8,0,0,0,.3.81.745.745,0,0,0,.839.038l3.575-2.2,3.575,2.2a.746.746,0,0,0,.84-.038.8.8,0,0,0,.3-.81L10.968,9.5,14.1,6.676a.8.8,0,0,0,.223-.834ZM7.25,12.293" transform="translate(95.243 -0.496)" fill="#d1d1d1"/>
  </g>
</svg>
