<svg xmlns="http://www.w3.org/2000/svg" width="46.319" height="61.997" viewBox="0 0 46.319 61.997">
  <path id="Path_261" data-name="Path 261" d="M71.86,74.316H68.374v-4.1a17.418,17.418,0,0,0,8.715-15.068V47.3a18.179,18.179,0,0,0-3.718-11.008,1.866,1.866,0,0,0-.143-.19A18.279,18.279,0,0,0,40.487,47.3a2.019,2.019,0,0,0,.042.209,1.645,1.645,0,0,0,.068.336,1.761,1.761,0,0,0,.139.3,1.455,1.455,0,0,0,.429.5,1.814,1.814,0,0,0,.265.18,1.721,1.721,0,0,0,.331.124,1.83,1.83,0,0,0,.193.071c.1.016.178.019.272.035v6.02c0,.014.007.024.007.037s-.007.024-.007.037a17.423,17.423,0,0,0,8.715,15.069v4.1H47.456A10.468,10.468,0,0,0,37,84.775v3.481a1.743,1.743,0,0,0,3.486,0V84.775A6.979,6.979,0,0,1,47.456,77.8h4.817l3.118,1.56c.024.012.051.007.077.019a1.8,1.8,0,0,0,.7.16l.005,0h0l.005,0a1.71,1.71,0,0,0,.7-.164c.026-.012.052-.007.077-.019l2.707-1.353,2.707,1.353c.024.012.051.007.077.019a1.71,1.71,0,0,0,.7.164l.005,0h0l.005,0a1.71,1.71,0,0,0,.7-.164c.026-.012.052-.007.077-.019l3.118-1.56H71.86a6.979,6.979,0,0,1,6.972,6.972v3.481a1.743,1.743,0,0,0,3.486,0V84.772A10.468,10.468,0,0,0,71.86,74.316Zm1.516-29.509a9.772,9.772,0,0,0-3.512-1.917l1.926-2.677a14.678,14.678,0,0,1,1.586,4.594ZM58.786,32.488a14.775,14.775,0,0,1,10.85,4.756l-4.005,5.562A32.975,32.975,0,0,0,61.7,43.9a37.077,37.077,0,0,1-17.642,1.863A14.832,14.832,0,0,1,58.786,32.488ZM45.716,55.149c0-.014-.007-.024-.007-.037s.007-.023.007-.037v-5.6a39.6,39.6,0,0,0,17.051-2.254c4.924-1.593,6.864-2.2,10.836,2.808v5.121a13.943,13.943,0,0,1-27.887,0ZM59.658,72.575a17.361,17.361,0,0,0,5.231-.8v3.21l-1.743.871L60.439,74.5c-.038-.019-.08-.016-.119-.033a1.882,1.882,0,0,0-.34-.092,1.664,1.664,0,0,0-.321-.04,1.855,1.855,0,0,0-.321.04,1.733,1.733,0,0,0-.338.092c-.038.016-.082.014-.12.033l-2.707,1.353-1.743-.871v-3.21A17.33,17.33,0,0,0,59.658,72.575Z" transform="translate(-36.498 -28.502)" fill="#2b2b2b" stroke="#fff" stroke-width="1"/>
</svg>
