<svg xmlns="http://www.w3.org/2000/svg" width="58.639" height="60.584" viewBox="0 0 58.639 60.584">
  <g id="ui" transform="translate(0.266 -0.001)">
    <path id="Path_229" data-name="Path 229" d="M92.995,27.591A13.795,13.795,0,1,0,79.2,13.8,13.795,13.795,0,0,0,92.995,27.591Zm0-24.98A11.185,11.185,0,1,1,81.811,13.8,11.185,11.185,0,0,1,92.995,2.611Zm0,0" transform="translate(-71.166 0)"/>
    <path id="Path_230" data-name="Path 230" d="M57.681,285.289l-11.25-5.99a1.271,1.271,0,0,0-1.24.013l-10.3,5.638a21.712,21.712,0,0,0-13.09-4.268,21.661,21.661,0,0,0-15.636,6.565A23.228,23.228,0,0,0-.266,303.678a1.309,1.309,0,0,0,1.3,1.305l36.308-.065a16.867,16.867,0,0,0,6.4,4.881l1.514.665a1.206,1.206,0,0,0,.522.1,1.484,1.484,0,0,0,.522-.1l1.71-.744a16.9,16.9,0,0,0,10.363-15.6V286.45a1.319,1.319,0,0,0-.692-1.161ZM2.383,302.36a20.472,20.472,0,0,1,5.664-13.3,19.031,19.031,0,0,1,13.769-5.769h.039a19.07,19.07,0,0,1,11.72,3.928v7.061a16.886,16.886,0,0,0,2.036,8.026Zm53.379-8.236a14.294,14.294,0,0,1-8.784,13.2h-.013l-1.187.509-.992-.431a14.343,14.343,0,0,1-8.6-13.129v-7.061l9.645-5.286,9.932,5.3Zm0,0" transform="translate(0 -249.985)"/>
    <path id="Path_231" data-name="Path 231" d="M387.114,393.709a1.305,1.305,0,0,0-1.983,1.7l2.962,3.458a1.314,1.314,0,0,0,.992.457,1.288,1.288,0,0,0,.822-.287l6.891-5.6a1.308,1.308,0,0,0-1.657-2.023l-5.9,4.8Zm0,0" transform="translate(-344.859 -350.261)" fill="#ff8121"/>
  </g>
</svg>
