<svg xmlns="http://www.w3.org/2000/svg" width="56.48" height="36.603" viewBox="0 0 56.48 36.603">
  <g id="ico_jcb_logo" transform="translate(0 -0.939)">
    <g id="jcb-pay-card-logo">
      <path id="Shape" d="M55.026.939H1.454A1.453,1.453,0,0,0,0,2.393v33.7a1.453,1.453,0,0,0,1.454,1.454H55.026a1.453,1.453,0,0,0,1.454-1.454V2.393A1.453,1.453,0,0,0,55.026.939ZM21.74,27.747h-.021a4.252,4.252,0,0,1-.035.545c-.011.087-.025.171-.042.255-.012.065-.026.129-.041.192s-.026.1-.041.158-.026.092-.041.137-.027.082-.041.123-.027.074-.041.11-.027.07-.042.1-.027.062-.041.1-.027.061-.041.09l-.041.084c-.013.026-.027.054-.041.08l-.041.076c-.013.024-.027.049-.041.072s-.027.047-.041.069-.027.044-.041.065-.027.043-.042.064-.027.041-.041.062l-.041.059-.041.057-.041.057-.041.053-.041.052c-.014.017-.027.034-.041.05s-.027.033-.041.049-.027.032-.041.047l-.041.047-.042.045c-.013.015-.027.029-.041.043l-.042.042-.041.04-.041.041-.041.039-.041.039c-.014.012-.027.023-.041.037l-.041.035L20.2,31l-.041.034-.041.034-.041.033c-.014.01-.027.021-.042.031s-.027.021-.041.03-.027.021-.041.03l-.041.029c-.014.01-.027.02-.041.028l-.041.028-.042.027a.406.406,0,0,1-.041.025c-.014.008-.027.018-.041.025a.346.346,0,0,1-.041.025c-.014.008-.027.018-.041.025s-.027.016-.042.023a.33.33,0,0,1-.041.023.4.4,0,0,1-.041.021.238.238,0,0,1-.041.023l-.041.021-.041.021-.042.021-.041.02-.041.02-.041.02-.042.018-.041.019-.041.019a.275.275,0,0,0-.041.017l-.041.017-.042.016c-.013,0-.027.011-.041.016l-.042.015-.041.015-.041.015-.041.013-.041.014-.041.013-.042.012-.041.011-.042.012-.041.011-.041.01-.041.011-.041.01-.042.009-.041.009-.041.008a.27.27,0,0,1-.041.008l-.042.008-.041.007-.041.007-.041.006-.041.005-.041.007a.313.313,0,0,0-.042,0,.271.271,0,0,1-.041,0c-.014,0-.027,0-.041,0l-.041,0-.041,0-.041,0-.041,0-.041,0h-6.42V23.038l.088.022.041.011.041.01.041.011.042.01.041.01.041.009.041.009.041.01.042.008.041.01.041.008.041.009.041.009.041.008.042.009.041.009.041.008.041.008.042.008.041.008.041.008.041.007.041.009.042.006.041.008.042.007.041.007.041.007.041.007.041.008.041.006.042.007.041.006.042.006.041.007.041.006.041.006.041.007.042.006.041.005.041.006.041.006.042.006.041,0,.041.006.041.006.041,0,.041.005.042,0,.041,0,.041.006.041,0,.041.006.042,0,.041,0,.041,0,.041,0,.041,0,.041.005.042,0,.041,0,.041,0,.041,0,.042,0,.041,0,.041,0,.041,0,.041,0,.042,0,.041,0,.041,0,.041,0,.041,0,.041,0,.042,0,.041,0,.041,0,.041,0,.042,0,.041,0,.042,0,.041,0,.041,0,.042,0,.041,0,.041,0h.412l.041,0h.576l.041,0h.247l.041,0,.042,0,.041,0h.041l.041,0,.041,0,.041,0,.041,0,.041,0,.042,0,.041,0,.041,0,.042,0,.041,0,.042,0,.041,0,.041,0,.041,0,.041,0,.041,0,.041,0,.041-.006.041,0,.041-.006.042-.005.041-.006.041,0,.041-.006c.014,0,.027,0,.041-.006l.042-.006.041-.006.041-.008a.32.32,0,0,0,.041-.007l.041-.006.042-.007a.27.27,0,0,1,.041-.008l.041-.008.041-.008.041-.008a.3.3,0,0,0,.041-.009l.041-.009.041-.008c.014,0,.027-.006.041-.009l.041-.009.042-.009.041-.011.041-.01.041-.011.041-.011.041-.012c.014,0,.027-.006.042-.011l.041-.011.041-.012.041-.012.042-.013.041-.013a.4.4,0,0,0,.041-.014l.041-.014.041-.014a.345.345,0,0,1,.042-.014l.041-.016.042-.015c.013,0,.027-.011.041-.015l.041-.017a.356.356,0,0,0,.041-.017l.041-.017.041-.017.042-.018.041-.019.042-.019.041-.02.041-.02.041-.02.041-.021.042-.021.041-.022c.014-.006.028-.015.041-.021l.041-.023.042-.023.041-.023a.451.451,0,0,1,.041-.025,3999.657,3999.657,0,0,0,.082-.052l.041-.027c.014-.01.027-.02.042-.029l.041-.029.041-.031.041-.03.041-.033.042-.034c.013-.012.027-.022.041-.035s.027-.023.041-.037.028-.025.041-.039a.265.265,0,0,0,.041-.041.4.4,0,0,0,.041-.041l.042-.043c.014-.014.027-.029.041-.045s.028-.031.041-.047.028-.033.041-.05l.041-.052.041-.055.041-.059c.014-.021.028-.041.041-.062l.041-.066c.014-.022.027-.046.041-.069s.027-.051.041-.075l.042-.082c.014-.03.027-.06.041-.091s.028-.064.042-.1l.041-.109c.015-.043.028-.084.041-.127s.029-.1.041-.152.029-.127.041-.191c.017-.1.031-.195.041-.3a4.192,4.192,0,0,0,.02-.423V15.15H17.187v4.935q0,.116-.009.228a2.067,2.067,0,0,1-.042.278c-.011.056-.025.11-.041.164s-.026.085-.041.125-.026.07-.041.1-.027.061-.041.09-.027.054-.041.08l-.041.07c-.013.022-.027.045-.041.065s-.027.04-.041.06l-.041.055-.042.051c-.013.016-.027.032-.041.047s-.028.03-.042.044-.027.028-.041.042l-.041.04c-.014.013-.027.024-.042.036l-.041.035c-.014.012-.027.021-.041.031l-.041.031c-.014.01-.027.021-.041.029s-.027.02-.041.028l-.041.026a.33.33,0,0,1-.041.023c-.014.008-.027.016-.042.023s-.027.015-.041.022-.027.015-.041.021a.317.317,0,0,1-.041.021l-.041.019-.041.019-.042.017a.291.291,0,0,1-.041.016l-.041.016-.041.014-.041.014-.042.013-.041.011-.041.012a.359.359,0,0,0-.041.011l-.041.009-.041.009c-.014,0-.027.007-.042.009l-.041.006a.3.3,0,0,0-.041.008l-.041.006-.041,0-.041.005-.041,0a18326.934,18326.934,0,0,0-.082.008l-.042,0a.275.275,0,0,1-.041,0l-.042,0a.275.275,0,0,1-.041,0h-.246l-.042,0h-.041l-.041,0-.042,0-.041,0-.042-.013-.041,0-.041,0-.041,0-.042,0-.041,0-.041,0-.041,0-.041-.005-.041,0-.042-.006-.041,0-.041-.007-.041,0-.025,0-.042-.006-.041-.007-.041-.008-.041-.006-.042-.008-.041-.007-.041-.008-.041-.008-.041-.009-.041-.008-.042-.008-.041-.009-.041-.009-.041-.01L13.322,22l-.042-.01-.041-.01-.041-.012-.041-.01-.041-.011-.041-.01-.042-.011-.041-.013-.041-.011-.041-.012-.042-.012-.041-.012-.041-.012-.041-.012-.041-.014-.042-.013-.041-.015-.042-.013-.041-.013-.041-.016-.041-.014-.041-.014-.041-.016-.042-.014-.041-.015-.042-.017-.041-.015-.041-.016-.041-.015-.041-.017-.042-.017L12,21.57l-.041-.017-.041-.018-.042-.017-.041-.018-.041-.018-.041-.018-.041-.018-.041-.019-.042-.017-.041-.02-.041-.018-.041-.02-.041-.02-.027-.014L11.4,21.3l-.041-.021-.041-.019-.088-.042V10.736a4.259,4.259,0,0,1,.088-.865c.012-.06.026-.119.041-.178s.027-.1.041-.151.026-.088.041-.132.027-.08.042-.12.026-.073.041-.109.027-.067.041-.1.027-.063.041-.093.027-.059.041-.088.027-.056.042-.083l.041-.079c.013-.025.027-.05.041-.075l.041-.072.041-.069c.014-.021.027-.044.041-.065s.027-.042.042-.063l.041-.061c.014-.02.027-.04.041-.059l.041-.056c.014-.019.027-.037.042-.055s.027-.036.041-.053l.041-.051c.013-.017.027-.034.041-.05l.041-.048.042-.047c.013-.015.027-.031.041-.045l.042-.044.041-.043.041-.042.041-.041.041-.041.041-.038.042-.038.041-.036c.014-.012.027-.024.042-.035l.041-.035L12.8,7.44l.041-.033.041-.033c.014-.01.027-.021.042-.031l.041-.031.041-.03.041-.029c.014-.01.027-.02.042-.029l.041-.028c.014-.009.027-.019.041-.027l.041-.026.041-.025.041-.025.042-.024.041-.024.041-.022L13.46,7l.041-.022.042-.021.041-.021.041-.021.041-.02.041-.02.041-.019.042-.018.041-.019.041-.017.041-.017.027-.014.041-.016.041-.015.041-.014.041-.015.042-.014.041-.014.041-.013.041-.013c.014,0,.027-.008.041-.012l.041-.012.042-.011.041-.01.041-.01.041-.01.042-.009.041-.009.042-.009.041-.008.041-.008.042-.007.041-.007.041-.007.041-.005.041-.006.041-.005.041-.005.041,0,.042,0,.041,0,.042,0,.041,0,.041,0,.041,0h.041l.041,0H21.74Zm11.746,0h0a4.442,4.442,0,0,1-.035.545c-.011.087-.024.171-.041.255-.013.064-.026.129-.042.191s-.025.1-.041.158-.027.092-.041.137-.027.082-.041.122-.027.075-.041.112-.027.068-.042.1-.026.063-.041.1-.026.06-.041.088-.026.057-.041.084-.026.055-.041.08-.026.051-.042.076-.025.049-.041.073a.7.7,0,0,1-.041.069L32.832,30c-.013.021-.027.043-.041.063s-.027.042-.041.062-.027.039-.042.06-.026.038-.041.057-.026.038-.04.056l-.041.054c-.015.017-.027.034-.041.051s-.027.034-.041.051-.027.033-.041.05l-.041.047-.041.045-.041.045c-.015.015-.027.029-.043.043s-.027.027-.041.041-.027.027-.041.041l-.041.041-.041.039-.041.037c-.014.014-.027.024-.041.037l-.041.036-.041.034c-.015.012-.027.023-.043.035l-.041.033-.041.033a.44.44,0,0,1-.041.031c-.015.01-.027.021-.041.031l-.041.029a.449.449,0,0,1-.041.029c-.014.01-.027.02-.041.028a.3.3,0,0,1-.043.029.411.411,0,0,1-.041.026.257.257,0,0,1-.041.026.466.466,0,0,1-.041.026.361.361,0,0,1-.041.024l-.041.025c-.015.008-.027.017-.041.024s-.027.015-.041.022l-.041.022-.041.022-.041.021-.041.022-.043.021c-.014.007-.026.015-.041.021l-.041.021-.041.019-.041.019-.041.019-.041.017-.041.018-.041.017c-.014.005-.027.011-.041.015s-.027.012-.042.017l-.041.015-.041.014-.041.016-.041.013-.042.013-.041.014-.041.012-.041.012-.041.01-.042.012-.041.01c-.015,0-.026.008-.041.01l-.041.01-.041.01-.042.009-.041.008-.041.009-.041.006-.041.008-.041.007-.042.006-.041,0-.041.006-.041,0-.042.006a.285.285,0,0,0-.041,0l-.042,0-.041,0-.041,0-.041,0-.041,0H22.993V22.18l.088.073.041.033.041.032.041.031c.014.01.027.021.041.029l.041.029.041.029.041.026c.014.009.027.019.042.028l.041.027.042.025a.25.25,0,0,0,.041.025l.041.025.041.023.041.023.041.023.041.021.041.022.041.022.041.021.041.021.042.021.041.02c.014.007.027.014.042.02l.041.02.041.019.041.019.041.018.041.018.041.018.041.017.041.017.042.017.041.017a.347.347,0,0,1,.041.016l.041.015c.014,0,.027.011.041.015l.041.016.042.014.041.014.041.015.041.013.041.014.042.013.041.013.041.012.041.012.041.013.041.011.042.012.041.01.041.012.041.01.042.012.041.01.041.01.041.009.041.009.042.01.041.009.041.009.041.008.041.008.041.008.042.009.041.008.041.007.041.008.042.006.041.008.042.007.041.007.041.007.041.007.041.006.041.006.041,0,.041.006.041.006.041,0,.041.005.041,0,.041.006.042,0,.041,0,.041.007.041,0,.041,0,.041,0,.041,0,.041,0,.041,0,.041,0,.042,0,.041,0,.041,0,.041,0,.041,0,.042,0,.041,0,.041,0,.041,0,.041,0,.041,0,.041,0,.041,0h.041l.042,0h.041l.041,0,.041,0h.041l.041,0h.042l.041,0h.657l.041,0h.083l.042,0h.041l.041,0h.042l.041,0,.041,0h.041l.041,0h.123l.041,0,.041,0,.043,0,.041,0,.041,0,.041,0,.041,0,.041,0,.041,0,.041,0,.041,0,.041,0,.041,0,.041,0,.041,0,.041,0,.041,0,.043,0,.04,0,.041,0,.041-.006.042,0,.041,0L30,23.473l.041,0,.041-.005.041,0,.042-.005.041,0,.041-.006.041,0,.041-.007.042-.006.041-.006.041-.005.041-.006.041-.008.042-.006.041-.006.041-.007.041-.006.041-.006.042-.007.041-.006.041-.008.041-.007.041-.007.042-.007.041-.007.041-.008.041-.008.041-.007.042-.007.041-.007.041-.009.041-.008.041-.007.041-.008.041-.009.041-.008.041-.008.041-.008.041-.008.041-.008.043-.01.041-.008.041-.009.041-.009.041-.008.041-.01.041-.008.041-.01.043-.009.041-.009.041-.01.041-.01.041-.01.041-.01.041-.01.041-.01.041-.01v-1.8l-.041.021-.041.02-.039.015-.041.02-.041.02-.041.02-.041.02-.041.02-.043.019-.041.019-.041.02-.041.02-.041.018-.041.018-.041.019-.041.019-.043.017-.041.017-.041.018-.041.017-.041.017-.041.016-.041.016-.041.016-.041.015-.041.016-.041.016-.041.015-.042.015-.041.014-.041.014-.041.014-.041.014-.042.014-.041.013-.041.013-.041.014-.041.012-.042.012-.041.013-.041.011-.041.012-.041.012-.042.011-.041.011-.041.012-.041.01L30.368,22l-.042.01-.041.01-.041.008-.041.01-.041.009-.042.009-.041.008-.041.01L30,22.082l-.041.008-.041.007-.042.007-.041.008-.041.006-.04.007-.043.006-.041.006-.041.006-.041.007-.041,0-.041.006-.041.006-.041,0-.041,0-.041.005h-.068l-.041,0-.04,0-.041,0-.041,0-.025,0h-.016l-.041,0-.042,0-.041,0-.043-.019-.041,0h-.452l-.041,0-.041,0-.041,0-.041,0-.041,0-.041,0a.284.284,0,0,1-.041,0l-.041,0-.041-.005-.041,0-.041-.006-.041-.006-.041-.007-.042-.006-.041-.006-.041-.009c-.014,0-.028,0-.041-.008a.315.315,0,0,1-.042-.009.3.3,0,0,1-.041-.008.306.306,0,0,1-.041-.01l-.041-.01-.041-.01c-.014,0-.028-.008-.041-.01l-.042-.012-.041-.012-.041-.012A.331.331,0,0,1,27.3,22l-.041-.013-.041-.014c-.014-.005-.027-.011-.041-.015l-.041-.016-.041-.016c-.014-.006-.027-.012-.042-.017l-.041-.018-.041-.019-.041-.019a.4.4,0,0,1-.041-.021l-.042-.02-.041-.021c-.014-.006-.028-.014-.041-.021a.332.332,0,0,0-.041-.022.282.282,0,0,0-.041-.023c-.014-.008-.027-.018-.041-.025s-.027-.017-.041-.025l-.041-.025a.481.481,0,0,0-.041-.027l-.041-.029-.042-.03-.041-.031-.041-.032c-.014-.013-.028-.022-.041-.035l-.041-.035-.041-.037-.041-.04-.041-.041-.041-.043-.041-.045c-.014-.015-.027-.032-.041-.048l-.041-.051-.041-.053-.042-.056-.041-.06-.042-.064c-.014-.021-.027-.046-.041-.069l-.041-.073c-.014-.026-.028-.054-.041-.08s-.028-.06-.042-.088-.028-.063-.041-.1-.028-.073-.041-.11-.028-.082-.041-.125-.029-.1-.041-.149-.029-.128-.041-.194c-.018-.1-.032-.2-.042-.3s-.017-.242-.017-.368.006-.249.017-.368c.01-.1.023-.2.042-.3.012-.065.025-.13.041-.194s.026-.1.041-.15.027-.084.041-.125.026-.074.041-.11.027-.064.041-.1.027-.06.042-.088.026-.054.041-.081.027-.05.041-.074.027-.046.041-.069l.042-.064.041-.06.042-.056c.013-.018.027-.036.041-.053s.027-.034.041-.05l.041-.048c.014-.016.027-.031.041-.045l.041-.044.041-.04.041-.04.041-.037.041-.036c.013-.012.027-.022.041-.034l.041-.033.041-.032c.014-.011.027-.02.042-.03l.041-.029.041-.028L26.6,16.8l.041-.026.041-.025.041-.023.041-.023.041-.021c.014-.007.027-.015.041-.021l.042-.02.041-.021.041-.019c.014-.005.027-.012.041-.018l.041-.018.042-.016.041-.016.041-.015.041-.016.041-.014.041-.013.041-.013.041-.012.041-.012.042-.012.041-.01.041-.01.041-.01.041-.01.041-.008.042-.008.041-.008.041-.008.041-.006.042-.007.041-.006.041-.006L28,16.322l.041,0,.041-.005.041,0,.041,0,.041,0,.041,0,.041,0,.041,0,.041,0,.041,0h.454l.041,0,.041,0,.041,0,.042,0,.041,0h.016l.025,0,.041,0,.041,0,.041,0,.041,0,.041,0,.04,0,.041,0,.041,0,.041,0,.041.006.041,0,.041.006.043.006.041.006.041.006.041.006.041.008.041.007.043.007.041.008.041.007.041.008.041.008.041.008.041.008.041.009.041.009.041.009.041.01.043.01.041.01.041.01.041.01.041.011.041.011.041.011.041.012.041.012.041.012.043.012.041.013.041.013.041.013.041.013.041.013.041.014.041.013.041.014.041.015.043.014.04.015.041.015.041.015.041.016.041.016.041.016.041.017.041.017.041.017.042.017.041.017.042.018.041.018.041.018.042.024.042.018.041.019.041.019.041.019.042.019.041.02.041.019.041.021.041.02.042.02.041.021.041.02.041.021v-1.8l-.041-.01-.041-.01-.041-.009-.042-.01-.041-.01-.041-.009-.041-.009-.041-.009-.042-.009-.041-.009-.057-.022-.041-.009-.041-.008-.041-.009-.041-.008-.041-.008-.043-.009-.04-.008-.042-.008-.041-.008-.041-.008-.041-.008-.041-.009-.041-.008-.041-.007-.041-.008-.041-.007-.041-.007-.042-.008-.041-.007-.041-.007-.041-.008-.041-.007-.042-.007-.041-.007-.041-.007-.041-.007-.041-.006-.042-.006-.041-.006-.041-.007-.041-.006-.041-.006-.042-.005-.041-.007-.041-.006-.041-.006-.041-.006-.042-.005-.041-.006-.041-.005-.041-.005-.041-.005-.042-.005-.041-.005L30,15.03l-.041-.005-.041,0-.041-.005-.042,0-.041-.005-.041,0-.04,0-.031-.009-.041,0-.041,0-.041,0-.041,0-.041,0-.041,0-.041,0-.041,0-.041,0-.041,0-.041,0-.041,0-.041,0-.041,0-.043,0-.037,0-.042,0h-.041l-.041,0-.041,0-.04,0H28.49l-.04,0h-.985l-.042,0h-.041l-.041,0-.041,0-.041,0-.041,0-.041,0-.041,0-.041,0-.042,0-.041,0-.041,0-.041,0-.041,0-.042,0-.041,0-.041,0-.041,0-.041,0-.041,0-.041.005-.041,0-.041.005-.041,0L26.436,15l-.041.005-.041.005-.041.006-.041.005-.041.005-.034.013-.041,0-.041.006-.041.007-.041.005-.041.007-.041.007-.042.007-.041.007-.042.007-.041.007-.041.008-.041.008-.042.008-.041.008-.041.008-.041.009-.041.009-.041.009-.042.009-.041.009-.041.01-.041.01-.041.01-.042.01-.035.01-.041.011-.041.011-.042.011-.041.012-.041.012-.041.012-.041.012-.041.012-.042.013-.041.013-.041.013-.041.014-.041.014-.042.015-.041.014-.041.015-.041.015-.041.016-.041.016-.042.016-.041.016-.041.017-.041.017-.041.017-.041.018-.041.018-.041.019-.041.019-.042.019-.041.021-.042.021-.041.021-.041.021-.041.022-.041.022-.041.022-.041.023c-.014.007-.027.016-.041.024l-.041.024-.041.025-.041.025-.042.026-.041.027-.042.027-.041.028-.041.029-.041.029-.041.031-.041.031-.041.032-.041.033-.088.073V10.738a4.242,4.242,0,0,1,.088-.864c.012-.06.025-.12.041-.178s.027-.1.041-.151.026-.088.041-.132.026-.08.041-.119.027-.073.041-.109.027-.067.041-.1.027-.063.041-.094.027-.059.042-.088.026-.056.041-.083.027-.053.042-.079.027-.05.041-.075l.041-.072.041-.069c.013-.022.027-.044.041-.066l.041-.063c.013-.021.027-.041.041-.062s.027-.039.041-.059.027-.038.041-.056l.041-.055c.013-.019.027-.036.041-.054s.027-.034.042-.051.027-.034.041-.05.027-.032.042-.048.027-.031.041-.047l.041-.045c.013-.015.027-.03.041-.044l.041-.043.041-.042.041-.041.041-.041.041-.038.042-.038.041-.037.041-.036.041-.035.041-.034.041-.033.042-.033.041-.031.041-.031.041-.03.041-.029.042-.028.041-.028.041-.027.041-.026.041-.026.041-.025.042-.024c.013-.008.027-.017.041-.024l.041-.022L25.214,7c.014-.007.027-.015.042-.021s.027-.015.041-.021l.041-.021.041-.021.041-.02.042-.02.041-.019.041-.018.041-.018.041-.017.041-.017.042-.016.041-.016c.014-.005.027-.011.041-.015l.041-.015.042-.015.041-.014.042-.014c.013,0,.027-.009.041-.012l.041-.013.041-.012.041-.011.041-.012.041-.01.041-.01.041-.01.041-.009.041-.009.041-.008.041-.008.042-.008.041-.007.041-.007.041-.007.041-.005.041-.006.041-.005.041,0,.041-.005.041,0,.042,0,.041,0,.041,0,.041,0,.041,0h.042l.041,0h6.337Zm11.773,0h-.007c0,.126-.007.252-.018.376s-.023.217-.041.324c-.014.072-.026.143-.042.213s-.026.114-.041.171-.027.1-.041.146-.027.087-.041.129-.026.078-.041.115-.026.071-.041.106-.026.065-.042.1-.025.062-.041.092-.027.06-.041.086-.027.057-.041.084-.027.052-.042.076-.026.051-.041.074-.026.047-.041.071-.026.045-.041.067-.026.043-.041.065-.026.042-.041.063-.026.039-.041.06-.026.039-.041.06-.026.037-.042.056-.027.036-.041.054-.027.036-.041.053l-.041.052-.042.049a.612.612,0,0,1-.041.048c-.013.016-.026.031-.041.047a.574.574,0,0,1-.041.045.427.427,0,0,1-.042.043c-.014.016-.027.028-.041.043L44,30.755c-.013.014-.027.026-.041.04l-.041.039-.041.039c-.014.013-.027.025-.042.037s-.026.024-.041.037l-.04.035-.041.034-.041.033c-.015.012-.027.022-.043.033s-.027.021-.041.032l-.041.032-.041.029c-.015.01-.027.021-.041.03s-.027.019-.043.028l-.041.029-.041.026c-.014.008-.027.019-.041.027s-.027.017-.041.024a.31.31,0,0,1-.041.026c-.014.007-.027.017-.041.024l-.033.029a.348.348,0,0,1-.043.022.227.227,0,0,1-.041.022.323.323,0,0,1-.041.022c-.014.007-.027.015-.041.021l-.041.022c-.014.007-.027.015-.041.021s-.027.015-.041.021l-.041.02-.043.02-.041.02-.041.018-.041.018-.041.018c-.014.006-.026.012-.041.017l-.041.017a.347.347,0,0,0-.041.016l-.041.015c-.014.005-.027.011-.041.015s-.027.011-.042.015l-.041.014-.041.013-.042.013-.041.012-.042.013-.041.01a.371.371,0,0,1-.041.012l-.041.011-.041.011-.041.01-.042.009-.041.009-.042.008-.041.01a.3.3,0,0,0-.041.008l-.042.006-.041.006-.041.006-.041.006-.041.006-.042,0a.284.284,0,0,0-.041,0l-.041,0c-.013,0-.026,0-.041,0l-.041,0-.041,0-.042,0L41.2,32H34.76V23.33h6.755l.041,0,.041,0,.041,0,.041,0,.041,0,.043,0,.041,0a.271.271,0,0,1,.041,0l.041-.006.041,0,.043-.006.041-.006.041-.007.041-.008a.329.329,0,0,0,.041-.008l.041-.008.021-.009.041-.009.042-.012a.4.4,0,0,0,.041-.01c.015,0,.026-.007.041-.011s.026-.008.042-.011a.331.331,0,0,0,.041-.014l.041-.012.041-.014a.331.331,0,0,1,.041-.014l.042-.016.041-.015a.388.388,0,0,1,.041-.017l.041-.018c.014-.005.026-.012.041-.018s.026-.013.042-.019l.041-.021a.386.386,0,0,0,.041-.02l.041-.021c.014-.006.027-.015.041-.021a.422.422,0,0,0,.041-.023c.014-.006.027-.016.042-.022s.026-.017.04-.024l.043-.026c.014-.008.027-.019.041-.027s.027-.019.041-.028l.041-.029c.015-.01.027-.021.041-.032a.347.347,0,0,0,.041-.033c.015-.011.027-.022.041-.034a.5.5,0,0,0,.041-.035l.043-.039c.013-.014.027-.025.041-.039s.027-.028.041-.043l.041-.045a.592.592,0,0,0,.041-.049c.015-.017.029-.033.043-.052l.041-.056.041-.061c.015-.021.027-.044.041-.064s.027-.049.041-.073.027-.053.041-.081a.942.942,0,0,0,.041-.093,1.122,1.122,0,0,0,.041-.11c.016-.046.029-.093.041-.14a1.718,1.718,0,0,0,.041-.214,1.9,1.9,0,0,0,.019-.274,1.781,1.781,0,0,0-.019-.266,1.579,1.579,0,0,0-.041-.207c-.012-.046-.025-.091-.041-.136s-.025-.07-.041-.1a.917.917,0,0,0-.041-.09c-.012-.026-.026-.053-.041-.079s-.026-.046-.041-.069-.026-.042-.041-.062-.027-.04-.041-.059l-.041-.054c-.014-.017-.027-.033-.043-.049a.3.3,0,0,0-.041-.047.55.55,0,0,0-.041-.044l-.041-.041-.041-.039-.043-.037a.5.5,0,0,0-.041-.035l-.041-.034a.333.333,0,0,0-.041-.03.391.391,0,0,0-.041-.03.278.278,0,0,0-.041-.029c-.014-.009-.026-.019-.041-.028a.451.451,0,0,0-.041-.025c-.014-.007-.027-.018-.043-.025a.381.381,0,0,0-.04-.023c-.015-.008-.027-.016-.042-.023a.265.265,0,0,0-.041-.021.4.4,0,0,0-.041-.021l-.041-.021-.041-.02-.041-.02-.042-.018c-.015-.005-.027-.011-.041-.017l-.041-.017-.041-.017-.041-.015c-.015,0-.027-.01-.042-.015l-.041-.014-.041-.013-.041-.014-.041-.012-.042-.012-.041-.012a.305.305,0,0,1-.041-.01l-.042-.01-.041-.009a.2.2,0,0,0-.042-.009.3.3,0,0,0-.041-.008l-.041-.009-.041-.007-.041-.007-.041-.007-.042-.006-.041-.006-.042,0-.041-.005-.041,0-.042,0-.041,0-.038,0V19.1l.038,0,.041-.008.042-.007.041-.008.041-.009.042-.01.041-.008.042-.011.041-.011c.015,0,.026-.008.041-.012L42.072,19l.041-.014c.015,0,.026-.009.041-.014a.3.3,0,0,1,.042-.014l.041-.016.042-.016.041-.017.041-.018.042-.018.041-.02.041-.021.041-.021.041-.022.042-.023.041-.024.041-.026.041-.027.041-.028c.014-.01.026-.02.042-.03l.041-.032.041-.033.041-.036.041-.037.041-.04.042-.042.04-.045.043-.047.041-.051c.015-.018.027-.037.041-.055a.711.711,0,0,0,.041-.06c.015-.021.027-.043.041-.065s.029-.048.041-.072a.894.894,0,0,0,.041-.082.956.956,0,0,0,.041-.094c.016-.038.029-.074.043-.112s.029-.1.041-.145a1.813,1.813,0,0,0,.041-.243,1.847,1.847,0,0,0,.011-.2,1.985,1.985,0,0,0-.011-.206,1.666,1.666,0,0,0-.041-.248c-.012-.05-.025-.1-.041-.146s-.026-.075-.043-.112a.771.771,0,0,0-.041-.093.861.861,0,0,0-.041-.08.708.708,0,0,0-.041-.07c-.014-.022-.026-.043-.041-.064a.556.556,0,0,0-.041-.058c-.014-.018-.026-.036-.041-.053l-.041-.049c-.014-.016-.027-.03-.043-.046s-.026-.028-.04-.043-.027-.027-.042-.04l-.041-.038-.041-.036-.041-.034-.041-.033-.041-.03c-.014-.01-.027-.02-.042-.029l-.041-.027-.041-.026-.041-.025-.041-.024-.042-.022-.041-.021-.041-.021-.041-.02-.041-.019-.042-.017-.041-.018c-.015-.005-.026-.011-.041-.017l-.042-.015-.041-.015-.042-.014-.041-.014-.041-.012-.041-.013-.041-.012-.041-.01-.042-.011-.041-.01c-.014,0-.027-.006-.042-.009l-.041-.008-.041-.008-.042-.008-.041-.007-.041-.007-.041-.006-.037,0-.042-.005-.041-.005-.041,0-.041-.005-.041,0-.041,0-.041,0-.041,0h-.017l-.024,0-.041,0-.043,0-.041,0-.041,0-.041,0h-6.2V10.738a4.271,4.271,0,0,1,.088-.867c.014-.06.026-.12.043-.179s.025-.1.041-.15.026-.089.041-.132l.041-.12c.014-.036.027-.073.041-.109l.041-.1c.015-.031.027-.063.041-.094s.027-.059.041-.088.027-.055.043-.083.026-.053.041-.079.026-.05.041-.075.026-.048.041-.072.026-.045.041-.068l.041-.066.041-.063.041-.061c.015-.02.027-.04.043-.059s.026-.038.041-.057.026-.037.041-.054a.642.642,0,0,1,.041-.054c.014-.017.026-.034.041-.051s.026-.033.041-.049.026-.033.041-.049.026-.031.041-.046l.041-.046.041-.044.041-.043L36,7.737c.014-.014.027-.027.043-.041a.39.39,0,0,1,.041-.04l.041-.038.041-.038.041-.036.043-.036.041-.035.04-.034.041-.033.041-.032.041-.032.041-.03.041-.03.041-.029.041-.029.042-.028L36.7,7.17l.042-.027.041-.026c.015-.008.027-.017.041-.025l.042-.024c.014-.008.027-.017.041-.024l.041-.023L36.992,7l.041-.022c.014-.007.027-.015.042-.021l.041-.021.041-.021.041-.02.041-.02.041-.019.042-.018.041-.018L37.4,6.8l.041-.017.042-.016.041-.016.041-.015.041-.014.042-.015.041-.014.042-.013.041-.013.042-.012.041-.012.041-.012.042-.011.041-.011.041-.01.041-.01c.014,0,.026-.006.041-.009l.042-.009.041-.008.041-.008.041-.008.041-.006.041-.007c.014,0,.027,0,.041-.006l.041-.006.043-.005.041-.005.041,0,.041,0,.041,0,.041,0,.043,0,.041,0,.041,0h.082l.041,0h6.328Zm-8.4-7.987v0h2.469a.268.268,0,0,0,.041,0l.041,0a.271.271,0,0,1,.041,0l.041,0,.041.006.041.006.024,0,.017,0,.042.01.041.012.041.015a.356.356,0,0,1,.041.017l.041.018.042.02c.015.006.026.014.041.021l.041.023c.015.008.028.019.041.027s.028.02.041.029.028.021.042.031l.041.037c.014.012.027.025.042.039a.438.438,0,0,1,.041.045c.015.016.028.032.042.049a.191.191,0,0,0,.031.06c.015.021.027.043.041.065s.027.051.041.076.029.064.041.1a1.241,1.241,0,0,1,.041.139,1.169,1.169,0,0,1,.029.262,1.159,1.159,0,0,1-.07.4c-.012.033-.026.064-.041.1s-.026.053-.041.077-.026.044-.041.065l-.041.056a.5.5,0,0,1-.043.05.556.556,0,0,1-.041.045.382.382,0,0,1-.041.039l-.041.036a.479.479,0,0,1-.043.032.33.33,0,0,1-.041.029.236.236,0,0,1-.041.025.152.152,0,0,1-.041.024c-.014.008-.026.015-.041.022l-.041.02-.041.018a.347.347,0,0,1-.041.016c-.014,0-.027.011-.041.015l-.041.012-.042.011-.017,0a.093.093,0,0,0-.024,0l-.041.007-.041.005-.041,0L39.4,22c-.015,0-.028,0-.041,0l-.041,0H36.84V19.76ZM36.84,18.5V16.422h2.288l.041,0,.041,0,.041,0,.041,0,.031,0,.01,0a.271.271,0,0,1,.041.009.306.306,0,0,1,.041.01l.042.011c.015,0,.027.009.041.014l.041.015a.389.389,0,0,1,.041.018.26.26,0,0,1,.041.02c.015.006.028.014.042.021l.041.024a.481.481,0,0,1,.041.027c.014.009.028.02.041.03a.339.339,0,0,1,.042.033.489.489,0,0,1,.041.037.529.529,0,0,1,.041.041.587.587,0,0,1,.041.046c.015.018.028.035.041.053s.028.041.041.062.029.049.042.074.027.062.041.095a.894.894,0,0,1,.041.139,1.025,1.025,0,0,1,.025.239,1.225,1.225,0,0,1-.025.239.94.94,0,0,1-.041.14.786.786,0,0,1-.041.094c-.013.025-.027.05-.042.074s-.026.042-.041.062-.026.036-.041.053a.449.449,0,0,1-.041.046c-.014.014-.026.028-.041.041s-.026.024-.041.037a.471.471,0,0,1-.042.033c-.013.01-.027.021-.041.03l-.041.026c-.014.008-.027.017-.041.024s-.027.015-.042.021-.026.014-.041.02l-.041.017-.041.016-.041.013-.042.012-.041.01-.041.008-.01,0-.031,0-.041,0-.041,0-.041,0-.041,0H36.84Z" fill="#a0a9b2"/>
    </g>
  </g>
</svg>
