<svg xmlns="http://www.w3.org/2000/svg" width="56.48" height="36.603" viewBox="0 0 56.48 36.603">
  <g id="ico_mastercard" transform="translate(0 -0.939)">
    <g id="mastercard">
      <path id="Shape" d="M15.051,16.812a5.33,5.33,0,0,0-1.869.34l-.224,1.33a4.869,4.869,0,0,1,1.682-.272c.575,0,.995.064.995.531a1,1,0,0,1-.051.389s-.453-.037-.663-.037c-1.335,0-2.737.568-2.737,2.287a1.463,1.463,0,0,0,1.49,1.663,2.006,2.006,0,0,0,1.583-.708l-.051.59h1.359l.606-4.25A1.826,1.826,0,0,0,15.051,16.812Zm-.762,4.938a.562.562,0,0,1-.6-.583c0-.422.229-.93,1.36-.93a.968.968,0,0,1,.336.036C15.411,20.533,15.219,21.75,14.289,21.75Z" fill="#a0a9b2"/>
      <path id="Shape-2" data-name="Shape" d="M19.959,18.237c.217,0,1.054.069,1.054.069l.195-1.362a7.2,7.2,0,0,0-1.424-.121c-1.142,0-2.3.456-2.3,2.015,0,1.768,1.932,1.588,1.932,2.334,0,.5-.54.537-.956.537a4.938,4.938,0,0,1-1.371-.236l-.206,1.351a4.984,4.984,0,0,0,1.732.188c.347,0,2.334.09,2.334-1.961,0-1.918-1.839-1.539-1.839-2.31C19.11,18.357,19.409,18.237,19.959,18.237Z" fill="#a0a9b2"/>
      <path id="Shape-3" data-name="Shape" d="M23.206,18.411h.817l.2-1.452h-.77l.157-.9H22.064c-.034.033-.911,5.076-.911,5.688a1.145,1.145,0,0,0,1.23,1.308,3.977,3.977,0,0,0,1.157-.2l.193-1.312c-.106,0-.261.046-.4.046-.537,0-.6-.287-.562-.5Z" fill="#a0a9b2"/>
      <path id="Shape-4" data-name="Shape" d="M51.161,27.445a.8.8,0,0,0-.075-.1.108.108,0,0,0-.043-.026.157.157,0,0,0,.1-.046.138.138,0,0,0,.039-.1.134.134,0,0,0-.023-.074.121.121,0,0,0-.064-.049.38.38,0,0,0-.127-.015H50.8v.505h.082V27.33h.047a.1.1,0,0,1,.064.018.454.454,0,0,1,.086.117l.044.08h.1Zm-.182-.182h-.1v-.152h.094a.24.24,0,0,1,.08.009.079.079,0,0,1,.035.026.069.069,0,0,1,.012.039.071.071,0,0,1-.025.057A.168.168,0,0,1,50.979,27.263Z" fill="#a0a9b2"/>
      <path id="Shape-5" data-name="Shape" d="M10.293,15.583l-1.521,4.51-.079-4.51H6.441L5.207,22.932H6.7l.939-5.54.138,5.54H8.836l1.983-5.54-.879,5.54h1.58l1.217-7.349Z" fill="#a0a9b2"/>
      <path id="Shape-6" data-name="Shape" d="M40.069,16.812a5.325,5.325,0,0,0-1.87.34l-.225,1.33a4.876,4.876,0,0,1,1.682-.272c.575,0,1,.064,1,.531a.966.966,0,0,1-.053.389s-.452-.037-.664-.037c-1.334,0-2.735.568-2.735,2.287a1.464,1.464,0,0,0,1.49,1.663,2.01,2.01,0,0,0,1.583-.708l-.051.59H41.58l.606-4.25A1.822,1.822,0,0,0,40.069,16.812Zm-.76,4.938a.561.561,0,0,1-.6-.583c0-.422.229-.93,1.36-.93a.98.98,0,0,1,.336.036C40.43,20.533,40.237,21.75,39.309,21.75Z" fill="#a0a9b2"/>
      <path id="Shape-7" data-name="Shape" d="M51.21,22.255a.422.422,0,0,0-.176-.174.466.466,0,0,0-.23-.061.5.5,0,0,0-.23.061.425.425,0,0,0-.175.174.473.473,0,0,0-.063.234.463.463,0,0,0,.063.232.448.448,0,0,0,.173.175.478.478,0,0,0,.232.062.47.47,0,0,0,.233-.062.474.474,0,0,0,.235-.407A.461.461,0,0,0,51.21,22.255Zm-.065.427a.377.377,0,0,1-.145.146.386.386,0,0,1-.387,0,.373.373,0,0,1-.146-.146.383.383,0,0,1,0-.389.364.364,0,0,1,.146-.145.391.391,0,0,1,.192-.05.386.386,0,0,1,.19.05.358.358,0,0,1,.146.145.4.4,0,0,1,.054.2A.39.39,0,0,1,51.145,22.682Z" fill="#a0a9b2"/>
      <path id="Shape-8" data-name="Shape" d="M50.963,22.648a.627.627,0,0,0-.074-.1.115.115,0,0,0-.043-.026.155.155,0,0,0,.1-.046.139.139,0,0,0,.04-.1.13.13,0,0,0-.024-.074.142.142,0,0,0-.062-.049.387.387,0,0,0-.128-.015H50.6v.5h.082v-.214h.047a.109.109,0,0,1,.066.017.51.51,0,0,1,.086.119l.043.079h.1Zm-.18-.185h-.1V22.31h.092a.3.3,0,0,1,.082.008.079.079,0,0,1,.033.027.065.065,0,0,1,.013.041.074.074,0,0,1-.024.055A.145.145,0,0,1,50.783,22.463Z" fill="#a0a9b2"/>
      <path id="Shape-9" data-name="Shape" d="M45.313,16.885c-.691,0-1.2.943-1.2.943l.138-.867H42.809l-.963,5.982H43.43c.451-2.556.533-4.629,1.6-4.25a5.934,5.934,0,0,1,.576-1.788A1.762,1.762,0,0,0,45.313,16.885Z" fill="#a0a9b2"/>
      <path id="Shape-10" data-name="Shape" d="M49.293,15.591l-.333,2.065a2.037,2.037,0,0,0-1.49-.8c-1.415,0-2.593,1.706-2.593,3.664,0,1.265.629,2.5,1.913,2.5a1.928,1.928,0,0,0,1.437-.645l-.067.551h1.5l1.18-7.339Zm-1.957,5.93c-.556,0-.816-.466-.816-1.2,0-1.2.537-1.986,1.216-1.986.554,0,.839.382.839,1.28C48.575,20.432,48.172,21.521,47.336,21.521Z" fill="#a0a9b2"/>
      <path id="Shape-11" data-name="Shape" d="M55.026.939H1.454A1.453,1.453,0,0,0,0,2.393v33.7a1.453,1.453,0,0,0,1.454,1.454H55.026a1.453,1.453,0,0,0,1.454-1.454V2.393A1.453,1.453,0,0,0,55.026.939ZM51.409,27.518a.435.435,0,0,1-.173.175.469.469,0,0,1-.466,0,.45.45,0,0,1-.174-.175.469.469,0,0,1-.062-.232.475.475,0,0,1,.063-.234.431.431,0,0,1,.175-.174.494.494,0,0,1,.231-.06.486.486,0,0,1,.229.06.425.425,0,0,1,.175.174.477.477,0,0,1,.062.234A.454.454,0,0,1,51.409,27.518Zm1.048-8.277a14.493,14.493,0,0,1-24.22,10.75,14.494,14.494,0,1,1-9.81-25.246h.093A14.437,14.437,0,0,1,28.238,8.49,14.495,14.495,0,0,1,52.459,19.234S52.457,19.237,52.457,19.241Z" fill="#a0a9b2"/>
      <path id="Shape-12" data-name="Shape" d="M28.727,20.45a11.079,11.079,0,0,0,.2-1.407,2.069,2.069,0,0,0-2.2-2.257c-1.552,0-2.7,1.673-2.7,3.563a2.422,2.422,0,0,0,2.666,2.7,3.914,3.914,0,0,0,1.63-.254l.272-1.488a4.8,4.8,0,0,1-1.639.38c-1.657,0-1.367-1.236-1.367-1.236Zm-1.992-2.279c.871,0,.71.979.71,1.057H25.732C25.732,19.127,25.894,18.171,26.735,18.171Z" fill="#a0a9b2"/>
      <path id="Shape-13" data-name="Shape" d="M35.965,16.991a2.748,2.748,0,0,1,1.416.441l.252-1.635a5.534,5.534,0,0,0-1.738-.378c-1.781,0-3.514,1.546-3.514,4.449,0,1.925.935,3.2,2.777,3.2a7.152,7.152,0,0,0,1.35-.211l.276-1.684a3.707,3.707,0,0,1-1.276.379,1.528,1.528,0,0,1-1.535-1.733C33.973,17.992,34.915,16.991,35.965,16.991Z" fill="#a0a9b2"/>
      <path id="Shape-14" data-name="Shape" d="M32.353,16.887c-.691,0-1.2.943-1.2.943l.139-.867H29.852l-.963,5.982h1.584c.449-2.555.533-4.629,1.6-4.25a5.935,5.935,0,0,1,.574-1.79A1.563,1.563,0,0,0,32.353,16.887Z" fill="#a0a9b2"/>
    </g>
  </g>
</svg>
