<svg xmlns="http://www.w3.org/2000/svg" width="56.48" height="36.603" viewBox="0 0 56.48 36.603">
  <g id="ico_visa_logo" transform="translate(0 -0.939)">
    <g id="visa-pay-logo-2">
      <path id="Shape" d="M55.026.939H1.454A1.453,1.453,0,0,0,0,2.393v33.7a1.453,1.453,0,0,0,1.454,1.454H55.026a1.453,1.453,0,0,0,1.454-1.454V2.393A1.453,1.453,0,0,0,55.026.939ZM4.373,12H10.4A1.564,1.564,0,0,1,12.1,13.159l1.311,6.305c-1.288-3.3-4.392-6.042-9.083-7.178Zm7.294,14.38-3.482-11.9A15.269,15.269,0,0,1,13.571,20.4l.406,1.469,3.808-9.729h4.12l-6.123,14.24Zm13.266.01H21.045l2.431-14.268h3.89ZM31.7,26.6a12.308,12.308,0,0,1-4.332-.762l.547-3.193.5.227a8.148,8.148,0,0,0,3.661.749c1.117,0,2.314-.437,2.325-1.393.007-.625-.5-1.071-2.015-1.771-1.476-.682-3.43-1.826-3.406-3.875.021-2.773,2.729-4.708,6.572-4.708a10.036,10.036,0,0,1,3.483.6L38.51,15.57l-.351-.165a7.174,7.174,0,0,0-2.91-.546c-1.522,0-2.228.634-2.228,1.227-.008.668.824,1.108,2.184,1.77,2.243,1.018,3.28,2.253,3.266,3.876C38.441,24.692,35.788,26.6,31.7,26.6Zm16.85-.208s-.355-1.64-.473-2.138l-4.98-.006c-.151.385-.817,2.144-.817,2.144H38.2l5.773-13.075a1.936,1.936,0,0,1,2.037-1.184h3L52.157,26.4Z" fill="#a0a9b2"/>
      <path id="Shape-2" data-name="Shape" d="M46.542,17.215l-.262-1.23c-.2.537-.539,1.4-.517,1.362,0,0-1.229,3.167-1.549,3.988h3.229C47.287,20.62,46.542,17.215,46.542,17.215Z" fill="#a0a9b2"/>
    </g>
  </g>
</svg>
