<svg xmlns="http://www.w3.org/2000/svg" width="84.555" height="59.399" viewBox="0 0 84.555 59.399">
  <g id="atmospheric" transform="translate(0.5 -67.3)">
    <g id="Group_783" data-name="Group 783" transform="translate(0 81.751)">
      <g id="Group_782" data-name="Group 782" transform="translate(0 0)">
        <path id="Path_245" data-name="Path 245" d="M69.456,157.1a13.84,13.84,0,0,0-4.155-9.944A14.147,14.147,0,0,0,55.357,143a14.462,14.462,0,0,0-7.272,2A14.958,14.958,0,0,0,44,148.714c-.3-.223-.668-.519-.965-.742A19.885,19.885,0,0,0,18.7,149.233a20.375,20.375,0,0,0-6.456,10.611A13.838,13.838,0,0,0,0,173.573a13.935,13.935,0,0,0,13.876,13.876H51.2a15.834,15.834,0,0,0,15.806-15.806,14.229,14.229,0,0,0-.965-5.343,12.907,12.907,0,0,0,2.3-3.71A13.969,13.969,0,0,0,69.456,157.1Zm-9.944,23.3a11.881,11.881,0,0,1-8.459,3.488H14.025A11.592,11.592,0,0,1,6.9,180.622a10.049,10.049,0,0,1-2.968-7.049,9.746,9.746,0,0,1,2.968-7.05,10.05,10.05,0,0,1,7.05-2.968,1.763,1.763,0,0,0,.89-.223,1.821,1.821,0,0,0,.816-1.261,16.128,16.128,0,0,1,25.156-10.76,15.646,15.646,0,0,1,5.046,5.714,5.742,5.742,0,0,0-1.187.519,15.378,15.378,0,0,0-5.343,3.933A1.892,1.892,0,0,0,42.149,164a11.948,11.948,0,0,1,17.364-.519,12,12,0,0,1,0,16.919Zm5.417-19.368a13.835,13.835,0,0,1-.742,1.484,15.143,15.143,0,0,0-1.707-2,15.7,15.7,0,0,0-11.131-4.6,8.979,8.979,0,0,0-1.41.074,18.777,18.777,0,0,0-2.968-4.6,10.651,10.651,0,0,1,3.191-3.117,10.154,10.154,0,0,1,5.343-1.484,10.136,10.136,0,0,1,10.24,10.24A10.45,10.45,0,0,1,64.93,161.032Z" transform="translate(0 -143)" stroke="#fff" stroke-width="1"/>
      </g>
    </g>
    <g id="Group_785" data-name="Group 785" transform="translate(68.009 75.406)">
      <g id="Group_784" data-name="Group 784" transform="translate(0 0)">
        <path id="Path_246" data-name="Path 246" d="M373.909,109.357a1.881,1.881,0,0,0-2.671,0l-4.081,4.081a1.889,1.889,0,0,0,2.671,2.671l4.081-4.081A1.881,1.881,0,0,0,373.909,109.357Z" transform="translate(-366.6 -108.8)" fill="#ff8121" stroke="#fff" stroke-width="1"/>
      </g>
    </g>
    <g id="Group_787" data-name="Group 787" transform="translate(53.576 67.8)">
      <g id="Group_786" data-name="Group 786" transform="translate(0 0)">
        <path id="Path_247" data-name="Path 247" d="M290.729,67.8a1.9,1.9,0,0,0-1.929,1.855v5.788a1.929,1.929,0,0,0,3.859,0V69.729A1.965,1.965,0,0,0,290.729,67.8Z" transform="translate(-288.8 -67.8)" fill="#ff8121" stroke="#fff" stroke-width="1"/>
      </g>
    </g>
    <g id="Group_789" data-name="Group 789" transform="translate(35.062 75.406)">
      <g id="Group_788" data-name="Group 788" transform="translate(0 0)">
        <path id="Path_248" data-name="Path 248" d="M196.309,113.438l-4.081-4.081a1.889,1.889,0,0,0-2.671,2.671l4.081,4.081a1.889,1.889,0,1,0,2.671-2.671Z" transform="translate(-189 -108.8)" fill="#ff8121" stroke="#fff" stroke-width="1"/>
      </g>
    </g>
    <g id="Group_791" data-name="Group 791" transform="translate(73.983 93.92)">
      <g id="Group_790" data-name="Group 790" transform="translate(0 0)">
        <path id="Path_249" data-name="Path 249" d="M406.443,208.6h-5.714a1.929,1.929,0,0,0,0,3.859h5.714a1.965,1.965,0,0,0,1.929-1.929A1.916,1.916,0,0,0,406.443,208.6Z" transform="translate(-398.8 -208.6)" fill="#ff8121" stroke="#fff" stroke-width="1"/>
      </g>
    </g>
    <g id="Group_793" data-name="Group 793" transform="translate(68.009 108.353)">
      <g id="Group_792" data-name="Group 792">
        <path id="Path_250" data-name="Path 250" d="M373.909,291.038l-4.081-4.081a1.889,1.889,0,0,0-2.671,2.671l4.081,4.081a1.889,1.889,0,1,0,2.671-2.671Z" transform="translate(-366.6 -286.4)" fill="#ff8121" stroke="#fff" stroke-width="1"/>
      </g>
    </g>
  </g>
</svg>
