<svg xmlns="http://www.w3.org/2000/svg" width="14.799" height="18.293" viewBox="0 0 14.799 18.293">
  <g id="placeholders" transform="translate(-48.886)">
    <g id="Group_768" data-name="Group 768" transform="translate(48.886)">
      <g id="Group_767" data-name="Group 767" transform="translate(0)">
        <path id="Path_227" data-name="Path 227" d="M62.358,3.181a7.386,7.386,0,0,0-12.144,0,7.387,7.387,0,0,0-.86,6.806,5.818,5.818,0,0,0,1.072,1.77L55.8,18.068a.639.639,0,0,0,.974,0l5.371-6.309a5.823,5.823,0,0,0,1.072-1.768A7.388,7.388,0,0,0,62.358,3.181Zm-.339,6.362a4.562,4.562,0,0,1-.844,1.382l0,0-4.886,5.739L51.4,10.924a4.565,4.565,0,0,1-.845-1.386,6.11,6.11,0,0,1,.714-5.63,6.107,6.107,0,0,1,10.039,0A6.111,6.111,0,0,1,62.018,9.543Z" transform="translate(-48.886 0)" fill="#4e4e4e"/>
      </g>
    </g>
    <g id="Group_770" data-name="Group 770" transform="translate(52.704 3.795)">
      <g id="Group_769" data-name="Group 769">
        <path id="Path_228" data-name="Path 228" d="M159.336,106.219a3.582,3.582,0,1,0,3.582,3.582A3.586,3.586,0,0,0,159.336,106.219Zm0,5.884a2.3,2.3,0,1,1,2.3-2.3A2.305,2.305,0,0,1,159.336,112.1Z" transform="translate(-155.754 -106.219)" fill="#4e4e4e"/>
      </g>
    </g>
  </g>
</svg>
