<svg xmlns="http://www.w3.org/2000/svg" width="24.171" height="20.804" viewBox="0 0 24.171 20.804">
  <path id="Twitter" d="M887.534,145.1a8.823,8.823,0,0,1-3.158,1.259,4.911,4.911,0,0,0-3.61-1.656,5.11,5.11,0,0,0-4.963,5.234,7.483,7.483,0,0,0,.129,1.193,13.844,13.844,0,0,1-10.184-5.433,5.194,5.194,0,0,0-.645,2.65,5.566,5.566,0,0,0,2.192,4.373,4.491,4.491,0,0,1-2.256-.663v.066a5.1,5.1,0,0,0,4,5.1,4.051,4.051,0,0,1-1.289.2,3.858,3.858,0,0,1-.9-.066A5.08,5.08,0,0,0,871.484,161a9.57,9.57,0,0,1-6.124,2.253,6.819,6.819,0,0,1-1.16-.066,13.614,13.614,0,0,0,7.606,2.319c9.088,0,14.116-7.95,14.116-14.841V150a9.752,9.752,0,0,0,2.449-2.716,8.656,8.656,0,0,1-2.836.795A6.525,6.525,0,0,0,887.534,145.1Z" transform="translate(-864.2 -144.7)" fill="#959595"/>
</svg>
