<svg xmlns="http://www.w3.org/2000/svg" width="24.171" height="22.495" viewBox="0 0 24.171 22.495">
  <g id="LinkedIn" transform="translate(0 0)">
    <rect id="Rectangle_22" data-name="Rectangle 22" width="4.704" height="15.31" transform="translate(0.653 7.185)" fill="#959595"/>
    <path id="Path_82" data-name="Path 82" d="M758.8,154.6c-2.678,0-4.377,1.477-4.7,2.552v-2.417H748.8c.065,1.276,0,15.31,0,15.31h5.292v-8.259a3.829,3.829,0,0,1,.13-1.276,2.677,2.677,0,0,1,2.548-1.88c1.829,0,2.679,1.41,2.679,3.492v7.923h5.357v-8.528C764.74,156.816,762.127,154.6,758.8,154.6Z" transform="translate(-740.634 -147.549)" fill="#959595"/>
    <path id="Path_83" data-name="Path 83" d="M739.174,144.1a2.646,2.646,0,0,0-2.874,2.686,2.613,2.613,0,0,0,2.809,2.619h.065a2.661,2.661,0,1,0,0-5.3Z" transform="translate(-736.3 -144.1)" fill="#959595"/>
  </g>
</svg>
