<svg id="instagram-logo" xmlns="http://www.w3.org/2000/svg" width="24.172" height="24.845" viewBox="0 0 24.172 24.845">
  <path id="Path_84" data-name="Path 84" d="M17.5,0H6.67A6.773,6.773,0,0,0,0,6.856V17.989a6.773,6.773,0,0,0,6.67,6.856H17.5a6.773,6.773,0,0,0,6.671-6.856V6.856A6.773,6.773,0,0,0,17.5,0Zm4.526,17.989A4.6,4.6,0,0,1,17.5,22.64H6.67a4.6,4.6,0,0,1-4.526-4.652V6.856A4.6,4.6,0,0,1,6.67,2.2H17.5a4.6,4.6,0,0,1,4.526,4.652V17.989Z" fill="#959595"/>
  <path id="Path_85" data-name="Path 85" d="M47.2,40.97a6.4,6.4,0,1,0,6.228,6.4A6.324,6.324,0,0,0,47.2,40.97Zm0,10.6a4.2,4.2,0,1,1,4.084-4.2A4.146,4.146,0,0,1,47.2,51.569Z" transform="translate(-35.111 -34.949)" fill="#959595"/>
  <path id="Path_86" data-name="Path 86" d="M120.494,28.251a1.558,1.558,0,0,0-1.111.473,1.646,1.646,0,0,0,0,2.287,1.542,1.542,0,0,0,2.223,0,1.65,1.65,0,0,0,0-2.287A1.558,1.558,0,0,0,120.494,28.251Z" transform="translate(-101.918 -24.099)" fill="#959595"/>
</svg>
