<svg xmlns="http://www.w3.org/2000/svg" width="24.172" height="24.71" viewBox="0 0 24.172 24.71">
  <path id="Facebook" d="M374.072,165.36a1.336,1.336,0,0,1-1.314,1.35h-6.174v-9.587h3.153l.46-3.713h-3.613v-2.363c0-1.08.263-1.823,1.773-1.823h1.9v-3.376a20.928,20.928,0,0,0-2.824-.135c-2.759,0-4.664,1.755-4.664,4.928v2.768h-3.153v3.713h3.153v9.587h-11.56a1.336,1.336,0,0,1-1.314-1.35V143.35a1.336,1.336,0,0,1,1.314-1.35h21.478a1.336,1.336,0,0,1,1.314,1.35V165.36Z" transform="translate(-349.9 -142)" fill="#959595"/>
</svg>
