<svg xmlns="http://www.w3.org/2000/svg" width="16.243" height="16" viewBox="0 0 16.243 16">
  <path id="star" d="M16.2,6.542a.867.867,0,0,0-.742-.609l-4.689-.438L8.916,1.035a.855.855,0,0,0-1.589,0L5.474,5.495l-4.69.438a.87.87,0,0,0-.742.609.9.9,0,0,0,.252.943L3.838,10.68,2.793,15.411a.9.9,0,0,0,.336.916.842.842,0,0,0,.949.043l4.043-2.485,4.043,2.485a.843.843,0,0,0,.95-.043.9.9,0,0,0,.336-.916L12.4,10.68l3.544-3.195a.9.9,0,0,0,.252-.943Zm-8,7.3" transform="translate(0 -0.496)" fill="#ff8121"/>
</svg>
