<svg id="LinkedIn" xmlns="http://www.w3.org/2000/svg" width="12.383" height="11.524" viewBox="0 0 12.383 11.524">
  <rect id="Rectangle_22" data-name="Rectangle 22" width="2.41" height="7.843" transform="translate(0.335 3.681)" fill="#fff"/>
  <path id="Path_82" data-name="Path 82" d="M753.921,154.6a2.471,2.471,0,0,0-2.41,1.307v-1.238H748.8c.034.654,0,7.843,0,7.843h2.711v-4.231a1.961,1.961,0,0,1,.067-.654,1.371,1.371,0,0,1,1.305-.963c.937,0,1.372.722,1.372,1.789v4.059H757v-4.369C756.966,155.735,755.628,154.6,753.921,154.6Z" transform="translate(-744.616 -150.988)" fill="#fff"/>
  <path id="Path_83" data-name="Path 83" d="M737.773,144.1a1.356,1.356,0,0,0-1.473,1.376,1.339,1.339,0,0,0,1.439,1.342h.034a1.363,1.363,0,1,0,0-2.718Z" transform="translate(-736.3 -144.1)" fill="#fff"/>
</svg>
