<svg xmlns="http://www.w3.org/2000/svg" width="12.383" height="10.658" viewBox="0 0 12.383 10.658">
  <path id="Twitter" d="M876.154,144.9a4.52,4.52,0,0,1-1.618.645,2.516,2.516,0,0,0-1.849-.849,2.618,2.618,0,0,0-2.543,2.681,3.834,3.834,0,0,0,.066.611,7.092,7.092,0,0,1-5.218-2.783,2.661,2.661,0,0,0-.33,1.358,2.852,2.852,0,0,0,1.123,2.24,2.3,2.3,0,0,1-1.156-.339v.034a2.615,2.615,0,0,0,2.047,2.614,2.076,2.076,0,0,1-.66.1,1.976,1.976,0,0,1-.462-.034,2.6,2.6,0,0,0,2.378,1.867,4.9,4.9,0,0,1-3.137,1.154,3.493,3.493,0,0,1-.594-.034,6.975,6.975,0,0,0,3.9,1.188c4.656,0,7.232-4.073,7.232-7.6v-.339a5,5,0,0,0,1.255-1.392,4.434,4.434,0,0,1-1.453.407A3.342,3.342,0,0,0,876.154,144.9Z" transform="translate(-864.2 -144.7)" fill="#fff"/>
</svg>
