<svg xmlns="http://www.w3.org/2000/svg" width="61.859" height="61.857" viewBox="0 0 61.859 61.857">
  <path id="Union_19" data-name="Union 19" d="M46.95-12.342A6.956,6.956,0,0,1,40-19.292v-41.7a6.956,6.956,0,0,1,6.951-6.951h5.687V-71.1a1.9,1.9,0,0,1,1.9-1.9,1.9,1.9,0,0,1,1.9,1.9v3.159h27.8V-71.1a1.9,1.9,0,0,1,1.9-1.9,1.9,1.9,0,0,1,1.9,1.9v3.159h5.686a6.956,6.956,0,0,1,6.951,6.951v41.7a6.956,6.956,0,0,1-6.951,6.951Zm-3.159-6.951a3.164,3.164,0,0,0,3.159,3.16H93.708a3.165,3.165,0,0,0,3.16-3.16v-29.7H43.791ZM96.868-52.781v-8.214a3.164,3.164,0,0,0-3.16-3.159H88.022v4.423a1.9,1.9,0,0,1-1.9,1.9,1.9,1.9,0,0,1-1.9-1.9v-4.423h-27.8v4.423a1.9,1.9,0,0,1-1.9,1.9,1.9,1.9,0,0,1-1.9-1.9v-4.423H46.95a3.163,3.163,0,0,0-3.159,3.159v8.214Z" transform="translate(-39.4 73.6)" fill="#2b2b2b" stroke="#fff" stroke-width="1.2"/>
</svg>
